<svg width="213" height="53" viewBox="0 0 213 53" fill="none" xmlns="http://www.w3.org/2000/svg">
<path d="M78.1543 23.0803C78.1543 24.5219 77.5328 25.5616 76.2741 26.1992C78.0746 26.8508 78.9669 28.1122 78.9669 29.9836C78.9669 31.6193 78.3773 32.9085 77.2142 33.8234C76.051 34.7521 74.4099 35.2096 72.3066 35.2096H64.8338C64.5151 35.2096 64.3398 35.071 64.3398 34.7799V18.7276C64.3398 18.4503 64.4992 18.2979 64.8338 18.2979H72.2588C74.1231 18.2979 75.573 18.7137 76.6087 19.5455C77.6285 20.391 78.1543 21.5693 78.1543 23.0803ZM73.6929 23.2466C73.6929 22.706 73.5176 22.304 73.167 22.0129C72.8165 21.7357 72.3066 21.5832 71.6534 21.5832H68.7216V24.8962H71.6534C73.0077 24.8962 73.6929 24.3556 73.6929 23.2466ZM68.7216 31.855H72.0358C72.8006 31.855 73.406 31.6886 73.8363 31.3559C74.2824 31.0232 74.5055 30.5242 74.5055 29.8588C74.5055 28.5835 73.6451 27.9459 71.9242 27.9459H68.7216V31.855V31.855ZM81.4366 23.8843C82.9981 23.011 84.8623 22.5812 87.0452 22.5812C88.9732 22.5812 90.439 23.0248 91.4588 23.912C92.4785 24.7992 92.9884 26.1161 92.9884 27.8904V34.3779C92.9884 34.6135 92.845 34.766 92.5741 34.8492C90.8533 35.3066 88.9891 35.5284 86.9655 35.5284C84.942 35.5284 83.3805 35.1957 82.2651 34.5165C81.1338 33.8372 80.5762 32.8253 80.5762 31.4668C80.5762 30.247 81.086 29.3321 82.1217 28.7083C83.1574 28.0845 84.6074 27.7795 86.5035 27.7795C87.1408 27.7795 87.9056 27.8211 88.8138 27.9181V27.6825C88.8138 27.0171 88.6385 26.5319 88.3039 26.2131C87.9693 25.8943 87.3798 25.7418 86.5194 25.7418C85.181 25.7418 84.0497 25.9636 83.1255 26.4072C82.8387 26.5458 82.6157 26.5042 82.4723 26.2686L81.3569 24.4249C81.2454 24.1754 81.2613 23.9952 81.4366 23.8843ZM84.8145 31.3559C84.8145 32.1738 85.5315 32.5897 86.9974 32.5897C87.571 32.5897 88.1924 32.5203 88.8457 32.3956V30.3163C88.3039 30.2192 87.6825 30.1777 86.9655 30.1777C85.5315 30.1777 84.8145 30.5658 84.8145 31.3559ZM99.5531 35.3066H96.3504C96.0317 35.3066 95.8565 35.168 95.8565 34.8769V23.3159C95.8565 23.0526 96.0158 22.9139 96.3504 22.9139H105.018C105.321 22.9139 105.48 23.0526 105.48 23.3159V25.6863C105.48 25.9636 105.321 26.1161 105.018 26.1161H100.015V34.8908C100.015 35.168 99.8558 35.3066 99.5531 35.3066ZM119.645 30.5103C119.645 32.0768 119.072 33.2966 117.924 34.1838C116.777 35.071 115.2 35.5146 113.208 35.5146C111.216 35.5146 109.639 35.071 108.476 34.1838C107.313 33.2966 106.739 32.0629 106.739 30.5103V27.6686C106.739 26.0883 107.313 24.8546 108.476 23.9397C109.639 23.0387 111.216 22.5812 113.208 22.5812C115.2 22.5812 116.777 23.0387 117.924 23.9397C119.072 24.8408 119.645 26.0883 119.645 27.6686V30.5103ZM110.977 30.5103C110.977 31.7302 111.726 32.3263 113.208 32.3263C114.69 32.3263 115.439 31.7163 115.439 30.5103V27.6686C115.439 27.0726 115.248 26.6151 114.865 26.2824C114.483 25.9636 113.925 25.7972 113.208 25.7972C112.475 25.7972 111.933 25.9636 111.551 26.2824C111.169 26.6012 110.977 27.0726 110.977 27.6686V30.5103ZM125.955 35.2096H122.752C122.434 35.2096 122.258 35.071 122.258 34.7799V23.3021C122.258 23.0387 122.418 22.9001 122.752 22.9001H125.955C126.258 22.9001 126.417 23.0387 126.417 23.3021V27.2943H130.193V23.3021C130.193 23.0387 130.353 22.9001 130.687 22.9001H133.89C134.193 22.9001 134.352 23.0387 134.352 23.3021V34.7799C134.352 35.0571 134.193 35.2096 133.89 35.2096H130.687C130.369 35.2096 130.193 35.071 130.193 34.7799V30.5242H126.417V34.7799C126.417 35.071 126.258 35.2096 125.955 35.2096ZM142.096 18.2979H156.069C156.293 18.2979 156.388 18.381 156.388 18.5612V19.892C156.388 20.0722 156.277 20.1554 156.069 20.1554H150.254V34.9601C150.254 35.1403 150.142 35.2234 149.935 35.2234H148.246C148.023 35.2234 147.927 35.1403 147.927 34.9601V20.1415H142.112C141.92 20.1415 141.809 20.0583 141.809 19.8781V18.5474C141.809 18.3949 141.905 18.2979 142.096 18.2979ZM156.101 23.5793C157.79 23.011 159.543 22.7337 161.375 22.7337C163.24 22.7337 164.721 23.1496 165.805 23.9952C166.888 24.8408 167.43 26.1299 167.43 27.8627V30.4688C167.43 32.0352 166.888 33.255 165.805 34.1422C164.721 35.0294 163.271 35.473 161.487 35.473C160.244 35.473 159.113 35.2234 158.109 34.7383V39.4514C158.109 39.6177 157.997 39.7148 157.79 39.7148H156.181C155.974 39.7148 155.878 39.6316 155.878 39.4514V23.8843C155.894 23.7318 155.958 23.6209 156.101 23.5793ZM161.359 33.7541C163.909 33.7541 165.199 32.659 165.199 30.4688V27.8627C165.199 25.5755 163.909 24.4388 161.343 24.4388C160.069 24.4388 159.001 24.5912 158.141 24.9101V32.9085C159.065 33.463 160.133 33.7541 161.359 33.7541ZM181.611 27.433V29.7479C181.611 29.942 181.515 30.0252 181.308 30.0252H172.417V31.0232C172.417 31.8966 172.736 32.5619 173.389 33.0332C174.043 33.5046 174.887 33.7402 175.939 33.7402C177.42 33.7402 178.807 33.2966 180.097 32.4094C180.273 32.3124 180.416 32.3401 180.528 32.4788L181.324 33.3798C181.452 33.5046 181.436 33.6293 181.276 33.7541C179.715 34.8908 177.914 35.4591 175.891 35.4591C174.313 35.4591 172.959 35.071 171.844 34.2947C170.712 33.5184 170.155 32.4233 170.155 31.0232V27.433C170.155 25.9081 170.712 24.7299 171.828 23.9259C172.943 23.1219 174.313 22.7199 175.923 22.7199C177.516 22.7199 178.87 23.1219 179.954 23.9259C181.053 24.7299 181.611 25.9081 181.611 27.433ZM179.428 27.433C179.428 26.4765 179.109 25.7418 178.456 25.2289C177.819 24.7299 176.958 24.4665 175.907 24.4665C174.839 24.4665 173.979 24.716 173.357 25.215C172.72 25.7141 172.401 26.4488 172.401 27.433V28.431H179.412V27.433H179.428ZM186.965 35.2096H185.037C184.83 35.2096 184.734 35.1264 184.734 34.9462V23.2605C184.734 23.0664 184.83 22.9832 185.037 22.9832H186.646C186.853 22.9832 186.949 23.0803 186.949 23.2605V29.5539C186.949 29.8172 186.949 30.3024 186.933 30.9817C186.917 31.6609 186.917 32.1461 186.917 32.4372C187.921 30.8569 188.717 29.6786 189.307 28.8885L193.689 23.1634C193.784 23.0387 193.912 22.9694 194.071 22.9694H195.967C196.158 22.9694 196.27 23.0664 196.27 23.2466V34.9323C196.27 35.1126 196.174 35.1957 195.967 35.1957H194.39C194.167 35.1957 194.071 35.1126 194.071 34.9323V28.833C194.071 28.0013 194.087 27.0171 194.119 25.8804H194.087C193.354 27.0587 192.589 28.2092 191.745 29.3043L187.347 35.0294C187.267 35.1541 187.14 35.2096 186.965 35.2096ZM194.597 17.882C194.469 18.8385 194.039 19.6148 193.306 20.197C192.573 20.7792 191.601 21.0703 190.39 21.0703C189.195 21.0703 188.239 20.7792 187.522 20.2108C186.805 19.6286 186.375 18.8662 186.232 17.9097C186.2 17.7434 186.28 17.6325 186.503 17.6048L187.586 17.48C187.761 17.4661 187.889 17.5355 187.937 17.6879C188.192 18.9494 189.004 19.587 190.39 19.587C191.808 19.587 192.637 18.9632 192.892 17.6879C192.908 17.5355 193.035 17.4661 193.242 17.48L194.31 17.6048C194.517 17.6186 194.629 17.7157 194.597 17.882ZM200.476 38.4533H198.947C198.756 38.4533 198.644 38.3563 198.644 38.1761V33.7541C198.644 33.5877 198.74 33.4907 198.947 33.4907H199.552C200.19 33.158 200.683 32.2986 201.034 30.8985C201.385 29.4984 201.703 26.9617 201.974 23.2743C201.974 23.0803 202.07 22.9971 202.277 22.9971H210.945C211.168 22.9971 211.263 23.0941 211.263 23.2743V33.4907H212.681C212.905 33.4907 213 33.5739 213 33.7541V38.1761C213 38.3701 212.889 38.4533 212.681 38.4533H211.184C210.961 38.4533 210.865 38.3563 210.865 38.1761V35.2096H200.779V38.1622C200.779 38.3563 200.683 38.4533 200.476 38.4533ZM204.045 24.7299C203.886 27.2666 203.647 29.235 203.328 30.6351C203.01 32.0352 202.58 32.9778 202.038 33.4907H209.049V24.7437H204.045V24.7299Z" fill="white"/>
<path d="M14.8023 29.5816L1.19502 51.0401C1.08348 51.2203 0.860413 51.3312 0.637343 51.3312C0.589543 51.3312 0.525808 51.3174 0.478007 51.3174C0.207137 51.2481 0 51.0263 0 50.7767V29.3044C0 28.9994 0.286804 28.7499 0.637343 28.7499H14.2446C14.4677 28.7499 14.6748 28.847 14.7864 29.0133C14.9138 29.1796 14.9138 29.4014 14.8023 29.5816ZM0.637343 23.7873H18.0846C18.3236 23.7873 18.5308 23.6764 18.6423 23.4962L32.8869 1.01193C32.9825 0.859448 32.9825 0.665379 32.9028 0.499034C32.8072 0.346552 32.632 0.221793 32.4408 0.194069C31.6282 0.0693103 30.7996 0 29.9551 0H0.637343C0.286804 0 0 0.249517 0 0.554483V23.219C0 23.5378 0.286804 23.7873 0.637343 23.7873ZM25.6371 23.316C25.7487 23.4823 25.9717 23.5794 26.1948 23.5794H29.9551C37.428 23.5794 43.5146 18.2979 43.5146 11.7828C43.5146 8.442 41.8735 5.25372 39.0213 3.02193C38.9098 2.9249 38.7505 2.88331 38.5911 2.88331C38.5593 2.88331 38.5115 2.88331 38.4796 2.89717C38.2884 2.9249 38.1291 3.03579 38.0335 3.17441L25.6212 22.7615C25.5256 22.9279 25.5256 23.1358 25.6371 23.316ZM33.3331 28.7915H22.1955C21.9565 28.7915 21.7493 28.9024 21.6378 29.0826L7.37725 51.553C7.26571 51.7332 7.28165 51.9273 7.39318 52.1075C7.50472 52.2738 7.72779 52.3709 7.95086 52.3709H33.3331C40.8059 52.3709 46.8925 47.0894 46.8925 40.5743C46.8925 34.0868 40.8059 28.7915 33.3331 28.7915Z" fill="white"/>
</svg>
