<svg width="70" height="70" viewBox="0 0 70 70" fill="none" xmlns="http://www.w3.org/2000/svg">
<circle cx="35" cy="35" r="35" fill="white"/>
<path d="M19.8608 30.8841C20.3775 30.4536 20.4473 29.6862 20.0171 29.1694C17.577 26.2397 18.3758 21.8267 21.6568 19.9324C24.928 18.0438 29.1455 19.542 30.4709 23.1167C30.7049 23.7471 31.4053 24.0687 32.0359 23.835C32.6667 23.6015 32.988 22.9005 32.7543 22.2699C30.9091 17.2947 25.0241 15.1765 20.4393 17.8235C15.8597 20.4676 14.7345 26.6324 18.1461 30.7278C18.5775 31.2461 19.3462 31.313 19.8608 30.8841Z" fill="#F5DF4D"/>
<path d="M41.4258 28.2616C39.74 27.1667 37.5002 27.6343 36.3965 29.2908C34.8641 28.2955 32.8367 28.5779 31.6428 29.9584L27.9145 23.5009C26.9209 21.7798 24.7075 21.1403 22.9801 22.0754C21.1691 23.0536 20.5165 25.3331 21.5475 27.1187L30.9258 43.3625L28.9382 42.7805C27.0306 42.2222 24.9893 43.284 24.3877 45.1482C23.7527 47.1151 24.8665 49.197 26.8309 49.7756L38.3337 53.2586C39.9375 53.7441 41.6902 53.542 43.1417 52.704L51.7277 47.7468C54.6348 46.0684 55.6344 42.338 53.956 39.4309L47.6248 28.465C46.2762 26.1291 42.924 26.0131 41.4258 28.2616V28.2616ZM51.8472 40.6484C52.8542 42.3926 52.2544 44.631 50.5102 45.638L41.9242 50.5951C41.0532 51.098 40.0017 51.2192 39.0393 50.9277C38.9982 50.9155 27.5619 47.4526 27.5209 47.4405C26.8664 47.2486 26.4923 46.5556 26.7047 45.8962C26.9054 45.2755 27.6003 44.9262 28.2538 45.1176L33.1568 46.5532C34.2082 46.8614 35.1012 45.7249 34.5534 44.7762L23.656 25.9014C23.3139 25.3088 23.5293 24.5467 24.1397 24.2166C24.718 23.9036 25.4652 24.1286 25.8057 24.7185C32.5044 36.3209 29.4482 31.0731 33.0659 37.3392C33.4031 37.9232 34.1535 38.1245 34.7387 37.7786C35.3301 37.4452 35.5319 36.6946 35.1945 36.1102L33.2525 32.7466C33.0658 32.2063 33.2812 31.5914 33.7941 31.2952C34.3754 30.9596 35.1217 31.1596 35.4573 31.7409L37.2836 34.9041C37.6198 35.4865 38.3644 35.686 38.9468 35.3498C39.5292 35.0135 39.7287 34.269 39.3924 33.6866L38.3778 31.9292C38.0422 31.3479 38.2422 30.6017 38.8235 30.2661C39.4048 29.9304 40.151 30.1304 40.4866 30.7117L41.5012 32.4691C41.8375 33.0515 42.582 33.251 43.1644 32.9147C43.7468 32.5785 43.9463 31.8339 43.6101 31.2515L43.4072 30.9001C43.0715 30.3188 43.2715 29.5725 43.8528 29.2369C44.4341 28.9013 45.1804 29.1012 45.516 29.6825L51.8472 40.6484Z" fill="black"/>
</svg>
