<svg width="30" height="30" viewBox="0 0 30 30" fill="none" xmlns="http://www.w3.org/2000/svg">
<g>
<path d="M25.3125 20.625H22.5V17.8125C22.5 17.295 22.08 16.875 21.5625 16.875C21.045 16.875 20.625 17.295 20.625 17.8125V20.625H17.8125C17.295 20.625 16.875 21.045 16.875 21.5625C16.875 22.08 17.295 22.5 17.8125 22.5H20.625V25.3125C20.625 25.83 21.045 26.25 21.5625 26.25C22.08 26.25 22.5 25.83 22.5 25.3125V22.5H25.3125C25.83 22.5 26.25 22.08 26.25 21.5625C26.25 21.045 25.83 20.625 25.3125 20.625Z" fill="white"/>
<path d="M13.5938 10.3125C11.7844 10.3125 10.3125 11.7844 10.3125 13.5938C10.3125 13.8525 10.5225 14.0625 10.7812 14.0625C11.04 14.0625 11.25 13.8525 11.25 13.5938C11.25 12.3019 12.3019 11.25 13.5938 11.25C13.8525 11.25 14.0625 11.04 14.0625 10.7812C14.0625 10.5225 13.8525 10.3125 13.5938 10.3125Z" fill="white"/>
<path d="M28.125 16.2713V7.41469C28.125 6.4425 27.3956 5.64 26.4272 5.54813L21.1059 5.04187L20.0672 1.92281C19.6838 0.7725 18.6112 0 17.3991 0H10.7269C9.51469 0 8.44219 0.7725 8.05875 1.92281L7.01906 5.04187L1.69781 5.54813C0.729375 5.64 0 6.4425 0 7.41469V22.5C0 23.5341 0.840937 24.375 1.875 24.375H13.6172C14.7797 27.6469 17.8969 30 21.5625 30C26.2144 30 30 26.2144 30 21.5625C30 19.56 29.295 17.7197 28.125 16.2713ZM13.1803 22.5H1.875V7.41469L8.41125 6.79219L9.83719 2.51625C9.96469 2.13281 10.3219 1.875 10.7259 1.875H17.3981C17.8022 1.875 18.1603 2.13281 18.2878 2.51625L19.7137 6.79219L26.25 7.41469V14.5519C24.9084 13.6519 23.2959 13.125 21.5625 13.125C21.2231 13.125 20.8894 13.1512 20.5603 13.1906C20.1309 9.98344 17.385 7.5 14.0625 7.5C10.4438 7.5 7.5 10.4438 7.5 14.0625C7.5 17.385 9.98344 20.1309 13.1906 20.5603C13.1512 20.8894 13.125 21.2231 13.125 21.5625C13.125 21.8794 13.1456 22.1916 13.1803 22.5ZM9.375 14.0625C9.375 11.4778 11.4778 9.375 14.0625 9.375C16.5 9.375 18.4856 11.2528 18.7069 13.6331C16.3509 14.4844 14.4844 16.3509 13.6331 18.7069C11.2528 18.4856 9.375 16.5 9.375 14.0625ZM21.5625 28.125C17.9438 28.125 15 25.1812 15 21.5625C15 17.9438 17.9438 15 21.5625 15C25.1812 15 28.125 17.9438 28.125 21.5625C28.125 25.1812 25.1812 28.125 21.5625 28.125Z" fill="white"/>
</g>
</svg>
