<svg width="14" height="17" viewBox="0 0 14 17" fill="none" xmlns="http://www.w3.org/2000/svg">
<path d="M0 0.5H2.10188V3.21592C3.35251 2.22275 4.92954 1.63041 6.64342 1.63041C10.7064 1.63041 14 4.95908 14 9.0652C14 13.1713 10.7064 16.5 6.64342 16.5C4.38347 16.5 2.36142 15.4701 1.01194 13.8492L2.71375 12.5908C3.67631 13.6858 5.08014 14.3758 6.64342 14.3758C9.54559 14.3758 11.8981 11.9981 11.8981 9.0652C11.8981 6.13226 9.54559 3.75463 6.64342 3.75463C5.50125 3.75463 4.44422 4.12294 3.58213 4.74845H6.30564V6.87268H0V0.5Z" fill="black"/>
</svg>
