<svg width="23" height="23" viewBox="0 0 23 23" fill="none" xmlns="http://www.w3.org/2000/svg">
<path d="M17.0229 23C16.0553 23 14.9486 22.77 13.738 22.3076C11.2049 21.3402 8.45714 19.4549 6.00116 16.9987C3.57396 14.5717 1.69951 11.8524 0.722807 9.34182C-0.318124 6.66599 -0.232315 4.4792 0.96444 3.18401L0.982865 3.16489L4.14777 0L10.3105 6.16272L8.11251 8.36073C7.28004 9.19319 7.21003 10.5115 7.94984 11.4275C8.48575 12.091 9.07219 12.7422 9.69285 13.3629C10.2937 13.9637 10.9235 14.5328 11.5647 15.0543C12.4789 15.7978 13.7981 15.7284 14.6334 14.8934L16.8372 12.6896L23 18.8523L19.907 21.9452C19.2051 22.6471 18.2209 23 17.0229 23ZM1.94641 4.10807C1.13869 4.99405 1.15045 6.72231 1.97922 8.85294C2.88978 11.1933 4.65666 13.7477 6.95436 16.0455C9.27925 18.3704 11.8593 20.1469 14.2189 21.0482C16.3705 21.8698 18.0963 21.8492 18.9537 20.992L21.0933 18.8523L16.8372 14.5961L15.5868 15.8467C14.2611 17.1723 12.1662 17.2812 10.714 16.1003C10.037 15.5496 9.37278 14.9495 8.73949 14.3162C8.08513 13.662 7.46657 12.9751 6.90084 12.2746C5.72689 10.8209 5.83797 8.72853 7.15896 7.40755L8.40362 6.16272L4.14777 1.90672L1.94641 4.10807Z" fill="white"/>
</svg>
