<svg width="25" height="25" viewBox="0 0 25 25" fill="none" xmlns="http://www.w3.org/2000/svg">
<circle cx="12.5" cy="12.5" r="12.5" fill="#2CB742"/>
<path d="M7 18L8.032 14.9042C7.50834 14.0234 7.2069 12.9956 7.2069 11.8966C7.2069 8.64 9.8469 6 13.1034 6C16.36 6 19 8.64 19 11.8966C19 15.1531 16.36 17.7931 13.1034 17.7931C12.1126 17.7931 11.1795 17.5475 10.36 17.1159L7 18Z" fill="white"/>
<path d="M16.8651 13.859C16.5928 13.3444 15.5887 12.756 15.5887 12.756C15.3616 12.6265 15.0874 12.612 14.9579 12.8429C14.9579 12.8429 14.6316 13.2341 14.5487 13.2904C14.1696 13.5472 13.8185 13.5372 13.4641 13.1828L12.6405 12.3592L11.8168 11.5355C11.4624 11.1811 11.4525 10.83 11.7092 10.451C11.7655 10.368 12.1567 10.0417 12.1567 10.0417C12.3876 9.91201 12.3732 9.63808 12.2436 9.4109C12.2436 9.4109 11.6552 8.40683 11.1407 8.13456C10.9218 8.0187 10.653 8.05925 10.478 8.23428L10.1143 8.59801C8.96039 9.75187 9.52853 11.0545 10.6824 12.2084L11.7369 13.2629L12.7915 14.3175C13.9454 15.4713 15.248 16.0395 16.4018 14.8856L16.7656 14.5219C16.9406 14.3464 16.9809 14.0777 16.8651 13.859Z" fill="#2CB742"/>
</svg>
