<svg width="38" height="38" viewBox="0 0 38 38" fill="none" xmlns="http://www.w3.org/2000/svg">
<path fill-rule="evenodd" clip-rule="evenodd" d="M32.4635 5.52234C28.8913 1.96309 24.1406 0.0020874 19.0795 0C8.65054 0 0.162901 8.44679 0.158706 18.8286C0.157308 22.1473 1.02844 25.387 2.68426 28.2426L0 38L10.0302 35.3815C12.7939 36.8818 15.9053 37.6725 19.0718 37.6734H19.0797C29.5075 37.6734 37.996 29.226 38 18.8437C38.0021 13.8121 36.0359 9.08136 32.4635 5.52234ZM19.0795 34.4934H19.0729C16.2512 34.4922 13.4837 33.7375 11.0689 32.3118L10.4949 31.9725L4.54282 33.5265L6.13151 27.7511L5.75747 27.159C4.18323 24.6671 3.35194 21.7869 3.35334 18.8298C3.3566 10.2007 10.4115 3.18027 19.0858 3.18027C23.2862 3.18167 27.2348 4.81169 30.2038 7.77001C33.1729 10.7283 34.807 14.6605 34.8056 18.8425C34.8019 27.4723 27.7475 34.4934 19.0795 34.4934ZM27.7055 22.7717C27.2329 22.5361 24.9085 21.3982 24.475 21.2409C24.042 21.0839 23.7265 21.0058 23.4116 21.4766C23.0963 21.9474 22.1904 23.0073 21.9145 23.3212C21.6386 23.6352 21.3631 23.6746 20.8903 23.439C20.4174 23.2036 18.8942 22.7065 17.0883 21.1036C15.683 19.8561 14.7343 18.3153 14.4583 17.8445C14.1829 17.3732 14.456 17.1431 14.6658 16.8843C15.1775 16.2518 15.69 15.5887 15.8475 15.2749C16.0053 14.9609 15.9263 14.686 15.8079 14.4506C15.69 14.2152 14.7445 11.8994 14.3507 10.957C13.9666 10.0399 13.5772 10.1638 13.2868 10.1494C13.0113 10.1357 12.696 10.1329 12.3807 10.1329C12.0656 10.1329 11.5534 10.2505 11.1199 10.7218C10.6867 11.1929 9.46551 12.331 9.46551 14.6468C9.46551 16.9627 11.1595 19.1999 11.3959 19.514C11.6322 19.828 14.7296 24.5803 19.4719 26.6181C20.5999 27.1033 21.4803 27.3925 22.1671 27.6094C23.2997 27.9675 24.3301 27.9169 25.1448 27.7958C26.0532 27.6606 27.9416 26.6575 28.3359 25.5586C28.7298 24.4595 28.7298 23.5176 28.6114 23.3212C28.4935 23.1249 28.1782 23.0073 27.7055 22.7717Z" fill="white"/>
</svg>
