<svg width="26" height="25" viewBox="0 0 26 25" fill="none" xmlns="http://www.w3.org/2000/svg">
<g clip-path="url(#clip0_668_958)">
<path d="M8.31348 17.836V21.7105C8.31348 22.0358 8.51775 22.3295 8.82819 22.4463C8.92308 22.4826 9.0212 22.5 9.11771 22.5C9.33967 22.5 9.55682 22.41 9.71284 22.2411L12.3829 19.3565L8.31348 17.836Z" fill="white"/>
<path d="M25.478 2.711C25.2528 2.50575 24.9279 2.44417 24.64 2.55311L0.513109 11.7627C0.202676 11.8827 -0.00159903 12.1763 9.43051e-06 12.5032C0.00161789 12.83 0.2075 13.1221 0.517933 13.2373L7.16892 15.7209L21.6242 6.62344L9.69903 16.6666L19.5508 20.3438C19.6425 20.377 19.7406 20.3959 19.8372 20.3959C19.9594 20.3959 20.08 20.3691 20.191 20.3154C20.3905 20.2191 20.5417 20.0454 20.606 19.837L25.7 3.52254C25.7901 3.23203 25.7048 2.91783 25.478 2.711V2.711Z" fill="white"/>
</g>
<defs>
<clipPath id="clip0_668_958">
<rect width="25.7353" height="25" fill="white"/>
</clipPath>
</defs>
</svg>
