<svg width="21" height="21" viewBox="0 0 21 21" fill="none" xmlns="http://www.w3.org/2000/svg">
<path d="M1.23432 19.7658L1.46926 15.8557C0.536789 14.2874 0 12.4571 0 10.5C0 4.70105 4.70105 0 10.5 0C16.2989 0 21 4.70105 21 10.5C21 16.2989 16.2989 21 10.5 21C8.73563 21 7.07405 20.5627 5.61474 19.7942L1.23432 19.7658Z" fill="white"/>
<path d="M17.1991 13.9947C16.7142 13.0785 14.9263 12.0307 14.9263 12.0307C14.5217 11.8 14.0336 11.7743 13.8029 12.1854C13.8029 12.1854 13.2219 12.8821 13.0742 12.9823C12.3993 13.4395 11.7741 13.4218 11.1429 12.7907L9.67626 11.324L8.20958 9.85736C7.57847 9.22626 7.56079 8.60105 8.018 7.9261C8.11821 7.77836 8.81489 7.19736 8.81489 7.19736C9.22605 6.96636 9.20026 6.47857 8.96963 6.07405C8.96963 6.07405 7.92184 4.2861 7.00558 3.80126C6.61579 3.59494 6.13721 3.66715 5.82552 3.97883L5.17784 4.62652C3.12315 6.6812 4.13484 9.00078 6.18952 11.0555L8.06737 12.9333L9.94521 14.8112C11.9999 16.8658 14.3195 17.8775 16.3742 15.8228L17.0218 15.1752C17.3335 14.8627 17.4054 14.3842 17.1991 13.9947Z" fill="#53B843"/>
</svg>
