<svg width="24" height="24" viewBox="0 0 24 24" fill="none" xmlns="http://www.w3.org/2000/svg">
<g opacity="0.5">
<path d="M20.25 5.25H15.75V4.5C15.75 3.25927 14.7407 2.25 13.5 2.25H10.5C9.25927 2.25 8.25 3.25927 8.25 4.5V5.25H3.75C3.33544 5.25 3 5.58581 3 6C3 6.41419 3.33544 6.75 3.75 6.75H4.5V18C4.5 20.0676 6.18239 21.75 8.25 21.75H15.75C17.8176 21.75 19.5 20.0676 19.5 18V6.75H20.25C20.6646 6.75 21 6.41419 21 6C21 5.58581 20.6646 5.25 20.25 5.25ZM9.75 4.5C9.75 4.08656 10.0862 3.75 10.5 3.75H13.5C13.9138 3.75 14.25 4.08656 14.25 4.5V5.25H9.75V4.5ZM18 18C18 19.2407 16.9907 20.25 15.75 20.25H8.25C7.00927 20.25 6 19.2407 6 18V6.75H18V18ZM11.25 16.5V10.5C11.25 10.0858 11.5854 9.75 12 9.75C12.4146 9.75 12.75 10.0858 12.75 10.5V16.5C12.75 16.9142 12.4146 17.25 12 17.25C11.5854 17.25 11.25 16.9142 11.25 16.5ZM8.25 16.5V10.5C8.25 10.0858 8.58544 9.75 9 9.75C9.41456 9.75 9.75 10.0858 9.75 10.5V16.5C9.75 16.9142 9.41456 17.25 9 17.25C8.58544 17.25 8.25 16.9142 8.25 16.5ZM14.25 16.5V10.5C14.25 10.0858 14.5854 9.75 15 9.75C15.4146 9.75 15.75 10.0858 15.75 10.5V16.5C15.75 16.9142 15.4146 17.25 15 17.25C14.5854 17.25 14.25 16.9142 14.25 16.5Z" fill="black"/>
</g>
</svg>
