<svg width="57" height="57" viewBox="0 0 57 57" fill="none" xmlns="http://www.w3.org/2000/svg">
<path d="M47.4189 9.91054C43.0674 3.61271 36.171 0 28.4992 0C20.8275 0 13.931 3.61271 9.57956 9.91054C5.24945 16.1765 4.24961 24.1094 6.89967 31.1181C7.60849 33.0321 8.73525 34.8916 10.2406 36.6341L26.9819 56.2984C27.3606 56.7435 27.9153 57 28.4992 57C29.0831 57 29.6379 56.7436 30.0165 56.2984L46.7531 36.6394C48.2652 34.8869 49.3905 33.0294 50.0934 31.1308C52.7488 24.1094 51.749 16.1765 47.4189 9.91054Z" fill="black"/>
<path d="M28.5012 11.8251C22.3474 11.8251 17.3403 16.8316 17.3403 22.986C17.3403 29.1404 22.3468 34.1469 28.5012 34.1469C34.6556 34.1469 39.6621 29.1404 39.6621 22.986C39.6621 16.8322 34.655 11.8251 28.5012 11.8251Z" fill="white"/>
</svg>
