<svg width="171" height="52" viewBox="0 0 171 52" fill="none" xmlns="http://www.w3.org/2000/svg">
<path d="M66.222 20.227C66.222 21.501 65.739 22.425 64.773 22.999C66.159 23.573 66.852 24.693 66.852 26.359C66.852 27.815 66.397 28.956 65.487 29.782C64.591 30.594 63.331 31 61.707 31H55.932C55.68 31 55.554 30.874 55.554 30.622V16.363C55.554 16.111 55.68 15.985 55.932 15.985H61.665C63.107 15.985 64.227 16.356 65.025 17.098C65.823 17.84 66.222 18.883 66.222 20.227ZM58.935 28.018H61.497C62.085 28.018 62.547 27.871 62.883 27.577C63.233 27.283 63.408 26.842 63.408 26.254C63.408 25.12 62.743 24.553 61.413 24.553H58.935V28.018ZM62.778 20.374C62.778 19.898 62.638 19.534 62.358 19.282C62.092 19.03 61.707 18.904 61.203 18.904H58.935V21.844H61.203C62.253 21.844 62.778 21.354 62.778 20.374ZM68.7712 20.941C69.9752 20.171 71.4172 19.786 73.0972 19.786C74.5812 19.786 75.7152 20.178 76.4992 20.962C77.2972 21.746 77.6962 22.922 77.6962 24.49V30.244C77.6962 30.454 77.5912 30.594 77.3812 30.664C76.0512 31.07 74.6092 31.273 73.0552 31.273C71.5012 31.273 70.2902 30.972 69.4222 30.37C68.5542 29.768 68.1202 28.865 68.1202 27.661C68.1202 26.583 68.5192 25.771 69.3172 25.225C70.1152 24.665 71.2422 24.385 72.6982 24.385C73.1882 24.385 73.7832 24.427 74.4832 24.511V24.301C74.4832 23.713 74.3502 23.279 74.0842 22.999C73.8322 22.719 73.3772 22.579 72.7192 22.579C71.6832 22.579 70.8082 22.775 70.0942 23.167C69.8702 23.293 69.7022 23.251 69.5902 23.041L68.7292 21.403C68.6172 21.193 68.6312 21.039 68.7712 20.941ZM71.3752 27.577C71.3752 28.305 71.9352 28.669 73.0552 28.669C73.5032 28.669 73.9792 28.613 74.4832 28.501V26.653C74.0632 26.569 73.5802 26.527 73.0342 26.527C71.9282 26.527 71.3752 26.877 71.3752 27.577ZM82.7644 31.084H80.2864C80.0344 31.084 79.9084 30.958 79.9084 30.706V20.437C79.9084 20.199 80.0344 20.08 80.2864 20.08H86.9854C87.2234 20.08 87.3424 20.199 87.3424 20.437V22.537C87.3424 22.789 87.2234 22.915 86.9854 22.915H83.1214V30.706C83.1214 30.958 83.0024 31.084 82.7644 31.084ZM98.2838 26.821C98.2838 28.207 97.8358 29.299 96.9398 30.097C96.0578 30.881 94.8468 31.273 93.3068 31.273C91.7668 31.273 90.5488 30.881 89.6528 30.097C88.7568 29.299 88.3088 28.207 88.3088 26.821V24.301C88.3088 22.901 88.7568 21.802 89.6528 21.004C90.5488 20.192 91.7668 19.786 93.3068 19.786C94.8468 19.786 96.0578 20.192 96.9398 21.004C97.8358 21.802 98.2838 22.901 98.2838 24.301V26.821ZM91.5848 26.821C91.5848 27.899 92.1588 28.438 93.3068 28.438C94.4548 28.438 95.0288 27.899 95.0288 26.821V24.301C95.0288 23.769 94.8818 23.363 94.5878 23.083C94.2938 22.789 93.8668 22.642 93.3068 22.642C92.7468 22.642 92.3198 22.789 92.0258 23.083C91.7318 23.363 91.5848 23.769 91.5848 24.301V26.821ZM103.149 31H100.671C100.419 31 100.293 30.874 100.293 30.622V20.437C100.293 20.199 100.419 20.08 100.671 20.08H103.149C103.387 20.08 103.506 20.199 103.506 20.437V23.986H106.425V20.437C106.425 20.199 106.551 20.08 106.803 20.08H109.281C109.519 20.08 109.638 20.199 109.638 20.437V30.622C109.638 30.874 109.519 31 109.281 31H106.803C106.551 31 106.425 30.874 106.425 30.622V26.842H103.506V30.622C103.506 30.874 103.387 31 103.149 31ZM115.412 15.985H126.206C126.374 15.985 126.458 16.062 126.458 16.216V17.392C126.458 17.546 126.374 17.623 126.206 17.623H121.712V30.769C121.712 30.923 121.628 31 121.46 31H120.158C119.99 31 119.906 30.923 119.906 30.769V17.623H115.412C115.258 17.623 115.181 17.546 115.181 17.392V16.216C115.181 16.062 115.258 15.985 115.412 15.985ZM126.225 20.668C127.527 20.164 128.885 19.912 130.299 19.912C131.741 19.912 132.882 20.29 133.722 21.046C134.562 21.788 134.982 22.929 134.982 24.469V26.779C134.982 28.165 134.562 29.257 133.722 30.055C132.882 30.839 131.769 31.231 130.383 31.231C129.417 31.231 128.549 31.014 127.779 30.58V34.759C127.779 34.913 127.695 34.99 127.527 34.99H126.288C126.134 34.99 126.057 34.913 126.057 34.759V20.941C126.057 20.801 126.113 20.71 126.225 20.668ZM130.278 29.698C132.252 29.698 133.239 28.725 133.239 26.779V24.469C133.239 22.439 132.245 21.424 130.257 21.424C129.277 21.424 128.451 21.564 127.779 21.844V28.942C128.507 29.446 129.34 29.698 130.278 29.698ZM145.923 24.091V26.149C145.923 26.317 145.846 26.401 145.692 26.401H138.825V27.283C138.825 28.053 139.077 28.648 139.581 29.068C140.085 29.488 140.743 29.698 141.555 29.698C142.703 29.698 143.774 29.306 144.768 28.522C144.908 28.438 145.02 28.459 145.104 28.585L145.713 29.383C145.811 29.495 145.797 29.607 145.671 29.719C144.467 30.727 143.081 31.231 141.513 31.231C140.295 31.231 139.252 30.888 138.384 30.202C137.516 29.502 137.082 28.529 137.082 27.283V24.091C137.082 22.733 137.509 21.697 138.363 20.983C139.231 20.269 140.288 19.912 141.534 19.912C142.766 19.912 143.802 20.269 144.642 20.983C145.496 21.697 145.923 22.733 145.923 24.091ZM144.243 24.091C144.243 23.237 143.991 22.586 143.487 22.138C142.997 21.69 142.346 21.466 141.534 21.466C140.708 21.466 140.05 21.69 139.56 22.138C139.07 22.572 138.825 23.223 138.825 24.091V24.973H144.243V24.091ZM150.051 31H148.56C148.406 31 148.329 30.923 148.329 30.769V20.395C148.329 20.227 148.406 20.143 148.56 20.143H149.799C149.953 20.143 150.03 20.227 150.03 20.395V25.981C150.03 26.219 150.023 26.646 150.009 27.262C150.009 27.864 150.009 28.291 150.009 28.543C150.779 27.143 151.395 26.093 151.857 25.393L155.238 20.311C155.308 20.199 155.406 20.143 155.532 20.143H157.002C157.156 20.143 157.233 20.227 157.233 20.395V30.769C157.233 30.923 157.156 31 157.002 31H155.784C155.616 31 155.532 30.923 155.532 30.769V25.351C155.532 24.609 155.546 23.734 155.574 22.726H155.553C154.993 23.776 154.391 24.791 153.747 25.771L150.345 30.853C150.289 30.951 150.191 31 150.051 31ZM155.952 15.607C155.854 16.461 155.518 17.147 154.944 17.665C154.384 18.183 153.635 18.442 152.697 18.442C151.773 18.442 151.031 18.19 150.471 17.686C149.925 17.168 149.596 16.482 149.484 15.628C149.456 15.474 149.526 15.383 149.694 15.355L150.534 15.25C150.674 15.236 150.765 15.299 150.807 15.439C151.003 16.559 151.633 17.119 152.697 17.119C153.789 17.119 154.433 16.559 154.629 15.439C154.643 15.299 154.734 15.236 154.902 15.25L155.721 15.355C155.889 15.383 155.966 15.467 155.952 15.607ZM160.478 33.877H159.302C159.148 33.877 159.071 33.793 159.071 33.625V29.698C159.071 29.544 159.148 29.467 159.302 29.467H159.764C160.254 29.173 160.632 28.41 160.898 27.178C161.178 25.932 161.423 23.671 161.633 20.395C161.633 20.227 161.71 20.143 161.864 20.143H168.563C168.731 20.143 168.815 20.227 168.815 20.395V29.467H169.907C170.075 29.467 170.159 29.544 170.159 29.698V33.625C170.159 33.793 170.075 33.877 169.907 33.877H168.752C168.584 33.877 168.5 33.793 168.5 33.625V31H160.709V33.625C160.709 33.793 160.632 33.877 160.478 33.877ZM163.229 21.697C163.103 23.951 162.914 25.701 162.662 26.947C162.424 28.179 162.095 29.019 161.675 29.467H167.093V21.697H163.229Z" fill="white"/>
<path d="M12.9274 29.3437L1.05053 50.6452C0.933808 50.8182 0.758719 50.9335 0.554448 50.9335C0.496085 50.9335 0.466904 50.9335 0.408541 50.9047C0.175089 50.847 0 50.6164 0 50.357V29.0554C0 28.7672 0.233452 28.5366 0.554448 28.5366H12.4313C12.6356 28.5366 12.8107 28.6519 12.8982 28.796C13.0441 28.969 13.0441 29.1707 12.9274 29.3437ZM0.554448 23.6075H15.8164C16.0206 23.6075 16.1957 23.4922 16.3125 23.3193L28.7438 1.00887C28.8313 0.864745 28.8313 0.662971 28.773 0.518847C28.6854 0.374723 28.5395 0.230599 28.3644 0.201774C27.6641 0.0576497 26.9345 0 26.1758 0H0.554448C0.233452 0 0 0.230599 0 0.547672V23.0599C0 23.3481 0.233452 23.6075 0.554448 23.6075ZM22.4114 23.1463C22.5281 23.3193 22.7032 23.4058 22.9075 23.4058H26.205C32.7416 23.4058 38.0527 18.1596 38.0527 11.7029C38.0527 8.38803 36.6228 5.2173 34.1132 2.99778C33.9964 2.91131 33.8797 2.85366 33.7338 2.85366C33.7046 2.85366 33.6754 2.85366 33.6463 2.85366C33.4712 2.88248 33.3253 2.99778 33.2669 3.14191L22.4114 22.5987C22.2947 22.7716 22.3238 22.9734 22.4114 23.1463ZM29.1231 28.5654H19.4057C19.2014 28.5654 19.0263 28.6807 18.9096 28.8537L6.44911 51.1641C6.36157 51.337 6.36157 51.5388 6.44911 51.7118C6.56584 51.8847 6.74093 51.9712 6.9452 51.9712H29.1231C35.6598 51.9712 40.9708 46.7251 40.9708 40.2683C41 33.8404 35.6598 28.5654 29.1231 28.5654Z" fill="#F5DF4D"/>
</svg>
