<svg width="188" height="52" viewBox="0 0 188 52" fill="none" xmlns="http://www.w3.org/2000/svg">
<path d="M66.2222 20.227C66.2222 21.501 65.7392 22.425 64.7732 22.999C66.1592 23.573 66.8522 24.693 66.8522 26.359C66.8522 27.815 66.3972 28.956 65.4872 29.782C64.5912 30.594 63.3312 31 61.7072 31H55.9322C55.6802 31 55.5542 30.874 55.5542 30.622V16.363C55.5542 16.111 55.6802 15.985 55.9322 15.985H61.6652C63.1072 15.985 64.2272 16.356 65.0252 17.098C65.8232 17.84 66.2222 18.883 66.2222 20.227ZM58.9352 28.018H61.4972C62.0852 28.018 62.5472 27.871 62.8832 27.577C63.2332 27.283 63.4082 26.842 63.4082 26.254C63.4082 25.12 62.7432 24.553 61.4132 24.553H58.9352V28.018ZM62.7782 20.374C62.7782 19.898 62.6382 19.534 62.3582 19.282C62.0922 19.03 61.7072 18.904 61.2032 18.904H58.9352V21.844H61.2032C62.2532 21.844 62.7782 21.354 62.7782 20.374ZM68.7714 20.941C69.9754 20.171 71.4174 19.786 73.0974 19.786C74.5814 19.786 75.7154 20.178 76.4994 20.962C77.2974 21.746 77.6964 22.922 77.6964 24.49V30.244C77.6964 30.454 77.5914 30.594 77.3814 30.664C76.0514 31.07 74.6094 31.273 73.0554 31.273C71.5014 31.273 70.2904 30.972 69.4224 30.37C68.5544 29.768 68.1204 28.865 68.1204 27.661C68.1204 26.583 68.5194 25.771 69.3174 25.225C70.1154 24.665 71.2424 24.385 72.6984 24.385C73.1884 24.385 73.7834 24.427 74.4834 24.511V24.301C74.4834 23.713 74.3504 23.279 74.0844 22.999C73.8324 22.719 73.3774 22.579 72.7194 22.579C71.6834 22.579 70.8084 22.775 70.0944 23.167C69.8704 23.293 69.7024 23.251 69.5904 23.041L68.7294 21.403C68.6174 21.193 68.6314 21.039 68.7714 20.941ZM71.3754 27.577C71.3754 28.305 71.9354 28.669 73.0554 28.669C73.5034 28.669 73.9794 28.613 74.4834 28.501V26.653C74.0634 26.569 73.5804 26.527 73.0344 26.527C71.9284 26.527 71.3754 26.877 71.3754 27.577ZM82.7646 31.084H80.2866C80.0346 31.084 79.9086 30.958 79.9086 30.706V20.437C79.9086 20.199 80.0346 20.08 80.2866 20.08H86.9856C87.2236 20.08 87.3426 20.199 87.3426 20.437V22.537C87.3426 22.789 87.2236 22.915 86.9856 22.915H83.1216V30.706C83.1216 30.958 83.0026 31.084 82.7646 31.084ZM98.284 26.821C98.284 28.207 97.836 29.299 96.94 30.097C96.058 30.881 94.847 31.273 93.307 31.273C91.767 31.273 90.549 30.881 89.653 30.097C88.757 29.299 88.309 28.207 88.309 26.821V24.301C88.309 22.901 88.757 21.802 89.653 21.004C90.549 20.192 91.767 19.786 93.307 19.786C94.847 19.786 96.058 20.192 96.94 21.004C97.836 21.802 98.284 22.901 98.284 24.301V26.821ZM91.585 26.821C91.585 27.899 92.159 28.438 93.307 28.438C94.455 28.438 95.029 27.899 95.029 26.821V24.301C95.029 23.769 94.882 23.363 94.588 23.083C94.294 22.789 93.867 22.642 93.307 22.642C92.747 22.642 92.32 22.789 92.026 23.083C91.732 23.363 91.585 23.769 91.585 24.301V26.821ZM103.149 31H100.671C100.419 31 100.293 30.874 100.293 30.622V20.437C100.293 20.199 100.419 20.08 100.671 20.08H103.149C103.387 20.08 103.506 20.199 103.506 20.437V23.986H106.425V20.437C106.425 20.199 106.551 20.08 106.803 20.08H109.281C109.519 20.08 109.638 20.199 109.638 20.437V30.622C109.638 30.874 109.519 31 109.281 31H106.803C106.551 31 106.425 30.874 106.425 30.622V26.842H103.506V30.622C103.506 30.874 103.387 31 103.149 31ZM115.412 15.985H126.206C126.374 15.985 126.458 16.062 126.458 16.216V17.392C126.458 17.546 126.374 17.623 126.206 17.623H121.712V30.769C121.712 30.923 121.628 31 121.46 31H120.158C119.99 31 119.906 30.923 119.906 30.769V17.623H115.412C115.258 17.623 115.181 17.546 115.181 17.392V16.216C115.181 16.062 115.258 15.985 115.412 15.985ZM126.225 20.668C127.527 20.164 128.885 19.912 130.299 19.912C131.741 19.912 132.882 20.29 133.722 21.046C134.562 21.788 134.982 22.929 134.982 24.469V26.779C134.982 28.165 134.562 29.257 133.722 30.055C132.882 30.839 131.769 31.231 130.383 31.231C129.417 31.231 128.549 31.014 127.779 30.58V34.759C127.779 34.913 127.695 34.99 127.527 34.99H126.288C126.134 34.99 126.057 34.913 126.057 34.759V20.941C126.057 20.801 126.113 20.71 126.225 20.668ZM130.278 29.698C132.252 29.698 133.239 28.725 133.239 26.779V24.469C133.239 22.439 132.245 21.424 130.257 21.424C129.277 21.424 128.451 21.564 127.779 21.844V28.942C128.507 29.446 129.34 29.698 130.278 29.698ZM145.923 24.091V26.149C145.923 26.317 145.846 26.401 145.692 26.401H138.825V27.283C138.825 28.053 139.077 28.648 139.581 29.068C140.085 29.488 140.743 29.698 141.555 29.698C142.703 29.698 143.774 29.306 144.768 28.522C144.908 28.438 145.02 28.459 145.104 28.585L145.713 29.383C145.811 29.495 145.797 29.607 145.671 29.719C144.467 30.727 143.081 31.231 141.513 31.231C140.295 31.231 139.252 30.888 138.384 30.202C137.516 29.502 137.082 28.529 137.082 27.283V24.091C137.082 22.733 137.509 21.697 138.363 20.983C139.231 20.269 140.288 19.912 141.534 19.912C142.766 19.912 143.802 20.269 144.642 20.983C145.496 21.697 145.923 22.733 145.923 24.091ZM144.243 24.091C144.243 23.237 143.991 22.586 143.487 22.138C142.997 21.69 142.346 21.466 141.534 21.466C140.708 21.466 140.05 21.69 139.56 22.138C139.07 22.572 138.825 23.223 138.825 24.091V24.973H144.243V24.091ZM150.051 31H148.56C148.406 31 148.329 30.923 148.329 30.769V20.395C148.329 20.227 148.406 20.143 148.56 20.143H149.799C149.953 20.143 150.03 20.227 150.03 20.395V25.981C150.03 26.219 150.023 26.646 150.009 27.262C150.009 27.864 150.009 28.291 150.009 28.543C150.779 27.143 151.395 26.093 151.857 25.393L155.238 20.311C155.308 20.199 155.406 20.143 155.532 20.143H157.002C157.156 20.143 157.233 20.227 157.233 20.395V30.769C157.233 30.923 157.156 31 157.002 31H155.784C155.616 31 155.532 30.923 155.532 30.769V25.351C155.532 24.609 155.546 23.734 155.574 22.726H155.553C154.993 23.776 154.391 24.791 153.747 25.771L150.345 30.853C150.289 30.951 150.191 31 150.051 31ZM155.952 15.607C155.854 16.461 155.518 17.147 154.944 17.665C154.384 18.183 153.635 18.442 152.697 18.442C151.773 18.442 151.031 18.19 150.471 17.686C149.925 17.168 149.596 16.482 149.484 15.628C149.456 15.474 149.526 15.383 149.694 15.355L150.534 15.25C150.674 15.236 150.765 15.299 150.807 15.439C151.003 16.559 151.633 17.119 152.697 17.119C153.789 17.119 154.433 16.559 154.629 15.439C154.643 15.299 154.734 15.236 154.902 15.25L155.721 15.355C155.889 15.383 155.966 15.467 155.952 15.607ZM160.478 33.877H159.302C159.148 33.877 159.071 33.793 159.071 33.625V29.698C159.071 29.544 159.148 29.467 159.302 29.467H159.764C160.254 29.173 160.632 28.41 160.898 27.178C161.178 25.932 161.423 23.671 161.633 20.395C161.633 20.227 161.71 20.143 161.864 20.143H168.563C168.731 20.143 168.815 20.227 168.815 20.395V29.467H169.907C170.075 29.467 170.159 29.544 170.159 29.698V33.625C170.159 33.793 170.075 33.877 169.907 33.877H168.752C168.584 33.877 168.5 33.793 168.5 33.625V31H160.709V33.625C160.709 33.793 160.632 33.877 160.478 33.877ZM163.229 21.697C163.103 23.951 162.914 25.701 162.662 26.947C162.424 28.179 162.095 29.019 161.675 29.467H167.093V21.697H163.229Z" fill="white"/>
<path d="M12.9274 29.3437L1.05053 50.6452C0.933808 50.8182 0.758719 50.9335 0.554448 50.9335C0.496085 50.9335 0.466904 50.9335 0.408541 50.9047C0.175089 50.847 0 50.6164 0 50.357V29.0554C0 28.7672 0.233452 28.5366 0.554448 28.5366H12.4313C12.6356 28.5366 12.8107 28.6519 12.8982 28.796C13.0441 28.969 13.0441 29.1707 12.9274 29.3437ZM0.554448 23.6075H15.8164C16.0206 23.6075 16.1957 23.4922 16.3125 23.3193L28.7438 1.00887C28.8313 0.864745 28.8313 0.662971 28.773 0.518847C28.6854 0.374723 28.5395 0.230599 28.3644 0.201774C27.6641 0.0576497 26.9345 0 26.1758 0H0.554448C0.233452 0 0 0.230599 0 0.547672V23.0599C0 23.3481 0.233452 23.6075 0.554448 23.6075ZM22.4114 23.1463C22.5281 23.3193 22.7032 23.4058 22.9075 23.4058H26.205C32.7416 23.4058 38.0527 18.1596 38.0527 11.7029C38.0527 8.38803 36.6228 5.2173 34.1132 2.99778C33.9964 2.91131 33.8797 2.85366 33.7338 2.85366C33.7046 2.85366 33.6754 2.85366 33.6463 2.85366C33.4712 2.88248 33.3253 2.99778 33.2669 3.14191L22.4114 22.5987C22.2947 22.7716 22.3238 22.9734 22.4114 23.1463ZM29.1231 28.5654H19.4057C19.2014 28.5654 19.0263 28.6807 18.9096 28.8537L6.44911 51.1641C6.36157 51.337 6.36157 51.5388 6.44911 51.7118C6.56584 51.8847 6.74093 51.9712 6.9452 51.9712H29.1231C35.6598 51.9712 40.9708 46.7251 40.9708 40.2683C41 33.8404 35.6598 28.5654 29.1231 28.5654Z" fill="#F5DF4D"/>
<path d="M179.716 12.4943V7.25284H182.372C182.585 7.25284 182.817 7.31439 183.068 7.4375C183.319 7.55587 183.532 7.74053 183.707 7.99148C183.887 8.23769 183.977 8.55019 183.977 8.92898C183.977 9.3125 183.885 9.6392 183.7 9.90909C183.516 10.1742 183.291 10.3755 183.026 10.5128C182.765 10.6501 182.519 10.7188 182.287 10.7188H180.369V9.86648H181.932C182.088 9.86648 182.256 9.78835 182.436 9.6321C182.621 9.47585 182.713 9.24148 182.713 8.92898C182.713 8.60701 182.621 8.3892 182.436 8.27557C182.256 8.16193 182.098 8.10511 181.96 8.10511H180.866V12.4943H179.716ZM182.884 10.0227L184.19 12.4943H182.926L181.648 10.0227H182.884ZM181.705 15.6193C180.919 15.6193 180.182 15.4725 179.496 15.179C178.809 14.8854 178.205 14.4782 177.685 13.9574C177.164 13.4366 176.757 12.8329 176.463 12.1463C176.17 11.4598 176.023 10.7235 176.023 9.9375C176.023 9.15152 176.17 8.41525 176.463 7.72869C176.757 7.04214 177.164 6.43845 177.685 5.91761C178.205 5.39678 178.809 4.98958 179.496 4.69602C180.182 4.40246 180.919 4.25568 181.705 4.25568C182.491 4.25568 183.227 4.40246 183.913 4.69602C184.6 4.98958 185.204 5.39678 185.724 5.91761C186.245 6.43845 186.652 7.04214 186.946 7.72869C187.24 8.41525 187.386 9.15152 187.386 9.9375C187.386 10.7235 187.24 11.4598 186.946 12.1463C186.652 12.8329 186.245 13.4366 185.724 13.9574C185.204 14.4782 184.6 14.8854 183.913 15.179C183.227 15.4725 182.491 15.6193 181.705 15.6193ZM181.705 14.2557C182.5 14.2557 183.224 14.0616 183.878 13.6733C184.531 13.285 185.052 12.7642 185.44 12.1108C185.829 11.4574 186.023 10.733 186.023 9.9375C186.023 9.14205 185.829 8.41761 185.44 7.7642C185.052 7.11079 184.531 6.58996 183.878 6.2017C183.224 5.81345 182.5 5.61932 181.705 5.61932C180.909 5.61932 180.185 5.81345 179.531 6.2017C178.878 6.58996 178.357 7.11079 177.969 7.7642C177.58 8.41761 177.386 9.14205 177.386 9.9375C177.386 10.733 177.58 11.4574 177.969 12.1108C178.357 12.7642 178.878 13.285 179.531 13.6733C180.185 14.0616 180.909 14.2557 181.705 14.2557Z" fill="white"/>
</svg>
