<svg width="338" height="88" viewBox="0 0 338 88" fill="none" xmlns="http://www.w3.org/2000/svg">
<path d="M124.019 38.7035C124.019 41.121 123.033 42.8645 121.036 43.9337C123.893 45.0263 125.309 47.1416 125.309 50.2797C125.309 53.0227 124.373 55.1845 122.527 56.7187C120.682 58.2761 118.077 59.0432 114.74 59.0432H102.881C102.376 59.0432 102.098 58.8108 102.098 58.3226V31.4045C102.098 30.9396 102.35 30.6839 102.881 30.6839H114.664C117.622 30.6839 119.923 31.3812 121.567 32.776C123.185 34.1939 124.019 36.1698 124.019 38.7035ZM116.94 38.9825C116.94 38.0759 116.661 37.4018 116.105 36.9136C115.549 36.4487 114.74 36.193 113.703 36.193H109.051V41.7487H113.703C115.852 41.7487 116.94 40.8421 116.94 38.9825ZM109.051 53.4178H114.31C115.524 53.4178 116.484 53.1389 117.167 52.581C117.875 52.0231 118.229 51.1863 118.229 50.0705C118.229 47.9319 116.864 46.8627 114.133 46.8627H109.051V53.4178ZM129.228 40.0518C131.706 38.5873 134.664 37.8667 138.128 37.8667C141.187 37.8667 143.513 38.6105 145.132 40.0983C146.75 41.586 147.559 43.7943 147.559 46.7697V57.6485C147.559 58.0437 147.331 58.2994 146.901 58.4388C144.171 59.2059 141.212 59.5779 138.001 59.5779C134.79 59.5779 132.312 59.02 130.542 57.881C128.747 56.7419 127.862 55.045 127.862 52.767C127.862 50.7214 128.671 49.1872 130.315 48.1411C131.958 47.0951 134.259 46.5837 137.268 46.5837C138.279 46.5837 139.493 46.6534 140.934 46.8162V46.421C140.934 45.3052 140.656 44.4916 140.125 43.957C139.594 43.4223 138.659 43.1666 137.293 43.1666C135.169 43.1666 133.374 43.5386 131.908 44.2824C131.453 44.5149 131.099 44.4451 130.871 44.05L129.101 40.9583C128.924 40.5399 128.95 40.2377 129.228 40.0518ZM134.588 52.581C134.588 53.9525 135.726 54.6499 138.052 54.6499C138.962 54.6499 139.948 54.5336 140.985 54.3244V50.8376C140.125 50.6749 139.139 50.6052 138.001 50.6052C135.726 50.6052 134.588 51.256 134.588 52.581ZM157.976 59.2059H152.894C152.388 59.2059 152.11 58.9735 152.11 58.4853V39.0987C152.11 38.657 152.363 38.4246 152.894 38.4246H166.648C167.129 38.4246 167.382 38.657 167.382 39.0987V43.0737C167.382 43.5386 167.129 43.7943 166.648 43.7943H158.709V58.5086C158.709 58.9735 158.456 59.2059 157.976 59.2059ZM189.859 51.163C189.859 53.7898 188.949 55.8354 187.129 57.3231C185.308 58.8108 182.805 59.5546 179.645 59.5546C176.484 59.5546 173.981 58.8108 172.135 57.3231C170.289 55.8354 169.379 53.7665 169.379 51.163V46.3977C169.379 43.7478 170.289 41.6789 172.135 40.1447C173.981 38.6338 176.484 37.8667 179.645 37.8667C182.805 37.8667 185.308 38.6338 187.129 40.1447C188.949 41.6557 189.859 43.7478 189.859 46.3977V51.163ZM176.105 51.163C176.105 53.2086 177.293 54.2082 179.645 54.2082C181.996 54.2082 183.184 53.1854 183.184 51.163V46.3977C183.184 45.3982 182.881 44.6311 182.274 44.0732C181.667 43.5386 180.782 43.2596 179.645 43.2596C178.481 43.2596 177.622 43.5386 177.015 44.0732C176.408 44.6079 176.105 45.3982 176.105 46.3977V51.163ZM199.872 59.0432H194.79C194.284 59.0432 194.006 58.8108 194.006 58.3226V39.0755C194.006 38.6338 194.259 38.4013 194.79 38.4013H199.872C200.352 38.4013 200.605 38.6338 200.605 39.0755V45.7701H206.598V39.0755C206.598 38.6338 206.85 38.4013 207.381 38.4013H212.464C212.944 38.4013 213.197 38.6338 213.197 39.0755V58.3226C213.197 58.7875 212.944 59.0432 212.464 59.0432H207.381C206.876 59.0432 206.598 58.8108 206.598 58.3226V51.1863H200.605V58.3226C200.605 58.8108 200.352 59.0432 199.872 59.0432ZM225.485 30.6839H247.659C248.013 30.6839 248.165 30.8234 248.165 31.1255V33.3571C248.165 33.6593 247.988 33.7988 247.659 33.7988H238.431V58.6248C238.431 58.927 238.254 59.0665 237.925 59.0665H235.245C234.891 59.0665 234.739 58.927 234.739 58.6248V33.7755H225.51C225.207 33.7755 225.03 33.636 225.03 33.3338V31.1023C225.03 30.8466 225.182 30.6839 225.485 30.6839ZM247.71 39.5404C250.39 38.5873 253.171 38.1224 256.079 38.1224C259.037 38.1224 261.389 38.8198 263.108 40.2377C264.827 41.6557 265.687 43.8175 265.687 46.7232V51.0933C265.687 53.72 264.827 55.7656 263.108 57.2533C261.389 58.741 259.088 59.4849 256.256 59.4849C254.284 59.4849 252.489 59.0665 250.896 58.2529V66.1563C250.896 66.4353 250.719 66.598 250.39 66.598H247.836C247.508 66.598 247.356 66.4585 247.356 66.1563V40.0518C247.381 39.7961 247.482 39.6101 247.71 39.5404ZM256.054 56.6025C260.099 56.6025 262.147 54.7661 262.147 51.0933V46.7232C262.147 42.8877 260.099 40.9816 256.028 40.9816C254.006 40.9816 252.312 41.2373 250.946 41.7719V55.1845C252.413 56.1143 254.107 56.6025 256.054 56.6025ZM288.19 46.0026V49.8846C288.19 50.21 288.038 50.3495 287.71 50.3495H273.601V52.0231C273.601 53.4876 274.107 54.6034 275.143 55.3937C276.18 56.184 277.52 56.5792 279.189 56.5792C281.54 56.5792 283.74 55.8354 285.788 54.3477C286.066 54.1849 286.294 54.2314 286.471 54.4639L287.735 55.9748C287.937 56.184 287.912 56.3933 287.659 56.6025C285.181 58.5086 282.324 59.4616 279.113 59.4616C276.61 59.4616 274.461 58.8108 272.691 57.509C270.896 56.2073 270.011 54.3709 270.011 52.0231V46.0026C270.011 43.4456 270.896 41.4697 272.665 40.1215C274.435 38.7733 276.61 38.0991 279.163 38.0991C281.692 38.0991 283.841 38.7733 285.56 40.1215C287.305 41.4697 288.19 43.4456 288.19 46.0026ZM284.726 46.0026C284.726 44.3986 284.22 43.1666 283.184 42.3066C282.172 41.4697 280.807 41.0281 279.138 41.0281C277.444 41.0281 276.079 41.4465 275.093 42.2833C274.081 43.1202 273.576 44.3522 273.576 46.0026V47.6762H284.701V46.0026H284.726ZM296.686 59.0432H293.626C293.297 59.0432 293.146 58.9038 293.146 58.6016V39.0057C293.146 38.6803 293.297 38.5408 293.626 38.5408H296.18C296.509 38.5408 296.66 38.7035 296.66 39.0057V49.5591C296.66 50.0008 296.66 50.8144 296.635 51.9534C296.61 53.0924 296.61 53.906 296.61 54.3942C298.203 51.7442 299.467 49.7683 300.402 48.4433L307.355 38.843C307.507 38.6338 307.709 38.5176 307.962 38.5176H310.971C311.275 38.5176 311.452 38.6803 311.452 38.9825V58.5783C311.452 58.8805 311.3 59.02 310.971 59.02H308.468C308.114 59.02 307.962 58.8805 307.962 58.5783V48.3504C307.962 46.9556 307.988 45.3052 308.038 43.3991H307.988C306.824 45.375 305.611 47.3043 304.271 49.1407L297.292 58.741C297.166 58.9502 296.964 59.0432 296.686 59.0432ZM308.797 29.9865C308.594 31.5904 307.912 32.8922 306.749 33.8685C305.586 34.8448 304.043 35.333 302.122 35.333C300.225 35.333 298.708 34.8448 297.57 33.8917C296.433 32.9154 295.75 31.6369 295.522 30.033C295.472 29.7541 295.598 29.5681 295.952 29.5216L297.672 29.3124C297.95 29.2892 298.152 29.4054 298.228 29.6611C298.632 31.7764 299.922 32.8457 302.122 32.8457C304.372 32.8457 305.687 31.7997 306.091 29.6611C306.117 29.4054 306.319 29.2892 306.648 29.3124L308.342 29.5216C308.67 29.5449 308.847 29.7076 308.797 29.9865ZM318.127 64.4826H315.699C315.396 64.4826 315.219 64.3199 315.219 64.0177V56.6025C315.219 56.3235 315.371 56.1608 315.699 56.1608H316.66C317.671 55.6029 318.455 54.1617 319.012 51.8139C319.568 49.4661 320.074 45.2122 320.503 39.029C320.503 38.7035 320.655 38.5641 320.984 38.5641H334.738C335.092 38.5641 335.244 38.7268 335.244 39.029V56.1608H337.494C337.848 56.1608 338 56.3003 338 56.6025V64.0177C338 64.3432 337.823 64.4826 337.494 64.4826H335.118C334.764 64.4826 334.612 64.3199 334.612 64.0177V59.0432H318.607V63.9945C318.607 64.3199 318.455 64.4826 318.127 64.4826ZM323.79 41.4697C323.537 45.7236 323.158 49.0245 322.652 51.3723C322.147 53.72 321.464 55.3007 320.604 56.1608H331.73V41.493H323.79V41.4697Z" fill="black"/>
<path d="M23.4891 49.6056L1.89632 85.5894C1.71933 85.8916 1.36535 86.0776 1.01137 86.0776C0.935519 86.0776 0.834381 86.0544 0.758529 86.0544C0.328696 85.9381 0 85.5662 0 85.1478V49.1407C0 48.6293 0.455117 48.2109 1.01137 48.2109H22.6042C22.9581 48.2109 23.2868 48.3736 23.4638 48.6526C23.6661 48.9315 23.6661 49.3034 23.4891 49.6056ZM1.01137 39.889H28.6977C29.0769 39.889 29.4056 39.7031 29.5826 39.4009L52.1868 1.69691C52.3385 1.44121 52.3385 1.11578 52.212 0.836833C52.0603 0.581134 51.7822 0.371926 51.4788 0.325435C50.1893 0.116227 48.8745 0 47.5345 0H1.01137C0.455117 0 0 0.418417 0 0.929815V38.936C0 39.4706 0.455117 39.889 1.01137 39.889ZM40.6824 39.0987C40.8594 39.3777 41.2134 39.5404 41.5674 39.5404H47.5345C59.3928 39.5404 69.0514 30.6839 69.0514 19.7586C69.0514 14.1564 66.4471 8.80999 61.9212 5.06749C61.7442 4.90477 61.4914 4.83504 61.2385 4.83504C61.188 4.83504 61.1121 4.83504 61.0616 4.85828C60.7581 4.90477 60.5053 5.09074 60.3536 5.32319L40.6571 38.1689C40.5054 38.4478 40.5054 38.7965 40.6824 39.0987ZM52.8947 48.2806H35.221C34.8417 48.2806 34.5131 48.4666 34.3361 48.7688L11.7066 86.4495C11.5296 86.7517 11.5549 87.0771 11.7319 87.3793C11.9089 87.6583 12.2629 87.821 12.6169 87.821H52.8947C64.7531 87.821 74.4117 78.9645 74.4117 68.0392C74.4117 57.1604 64.7531 48.2806 52.8947 48.2806Z" fill="black"/>
</svg>
