<svg width="118" height="118" viewBox="0 0 118 118" fill="none" xmlns="http://www.w3.org/2000/svg">
<circle cx="59" cy="59" r="59" fill="#373947"/>
<path d="M58.8829 61.6828C59.1694 61.8458 59.4796 61.9238 59.787 61.9238C60.4203 61.9238 61.0359 61.5929 61.3727 61.0049C61.8717 60.1296 61.5683 59.0161 60.693 58.5161C53.7383 54.5412 50.0302 50.1169 49.0225 44.5918C48.5749 42.1336 49.0946 38.4927 51.2613 35.8952C53.0594 33.7394 55.6589 32.6466 58.9846 32.6466C64.1787 32.6466 67.8848 35.5246 68.8965 40.3422C69.8935 45.0847 67.8018 51.249 61.8776 53.8534C60.9558 54.2605 60.5359 55.3365 60.9419 56.2582C61.348 57.18 62.4239 57.5961 63.3467 57.194C71.0493 53.807 73.7653 45.7754 72.4661 39.5933C71.3903 34.4717 67.284 29 58.9846 29C53.4309 29 50.1962 31.4789 48.4592 33.5588C45.337 37.3014 44.8767 42.1931 45.4329 45.2451C47.0296 54.0029 53.8736 58.8215 58.8829 61.6828Z" fill="#F5DF4D"/>
<path d="M82.9266 82.3531H36.6556C36.7188 74.6514 37.1941 69.5958 38.0684 67.3105C39.2264 64.2901 44.2021 61.5522 47.2689 60.1947C50.2517 66.2236 56.9674 78.2745 57.2786 78.8327C57.4486 79.1373 57.6991 79.3799 57.9946 79.5419C58.0007 79.5452 58.0067 79.5485 58.0129 79.5518C58.1087 79.603 58.2091 79.6455 58.3131 79.679C58.325 79.6828 58.3369 79.6866 58.349 79.6901C58.4524 79.7211 58.5589 79.7429 58.6678 79.7552C58.6804 79.7566 58.693 79.7578 58.7056 79.7589C58.7604 79.764 58.8155 79.7674 58.8712 79.7674C58.8717 79.7674 58.872 79.7674 58.8724 79.7674C58.8727 79.7674 58.873 79.7674 58.8732 79.7674C58.8746 79.7674 58.8759 79.7672 58.8772 79.7672C58.9295 79.767 58.9814 79.764 59.0331 79.7593C59.051 79.7577 59.0687 79.7559 59.0864 79.7538C59.1266 79.749 59.1666 79.7429 59.2061 79.7356C59.235 79.7302 59.2635 79.7239 59.292 79.7171C59.3199 79.7105 59.3475 79.7036 59.3749 79.6958C59.4018 79.6881 59.4284 79.6799 59.4548 79.671C59.4742 79.6644 59.4932 79.6572 59.5122 79.65C59.5617 79.6315 59.61 79.6109 59.6573 79.5884C59.6717 79.5815 59.6862 79.5749 59.7004 79.5677C59.7289 79.5532 59.7567 79.538 59.7843 79.522C59.7974 79.5146 59.8099 79.5066 59.8227 79.4987C59.8726 79.4682 59.9207 79.4355 59.9672 79.4006C59.9778 79.3926 59.9887 79.385 59.9991 79.3768C60.0246 79.3567 60.0493 79.3359 60.0737 79.3145C60.0844 79.3052 60.0947 79.2955 60.1052 79.2859C60.1858 79.2119 60.2596 79.1309 60.3258 79.0435C60.3288 79.0395 60.3318 79.0356 60.3347 79.0316C60.3944 78.9516 60.4481 78.867 60.4942 78.7775C61.0596 77.7638 67.4462 66.2709 70.4331 60.1946C73.499 61.5482 78.4696 64.282 79.6296 67.3113C80.7678 70.2755 80.7074 73.7918 80.6541 76.8951C80.6432 77.5551 80.6314 78.1963 80.6314 78.8119C80.6314 79.8196 81.4476 80.6358 82.4553 80.6358C83.463 80.6358 84.2802 79.8196 84.2802 78.8119C84.2802 78.216 84.2901 77.5966 84.3019 76.9584C84.3621 73.522 84.4294 69.6282 83.0362 66.0041C80.8191 60.2133 71.2461 56.5428 70.1613 56.1437C69.2671 55.8166 68.2712 56.2286 67.8741 57.0932C66.4667 60.1545 63.2261 66.202 60.6971 70.8428V65.4983C60.6971 64.4905 59.881 63.6744 58.8732 63.6744C57.8665 63.6744 57.0493 64.4905 57.0493 65.4983V70.8596C54.4719 66.1446 51.1603 59.9892 49.8279 57.0932C49.4307 56.2277 48.4368 55.8167 47.5407 56.1437C46.4568 56.5428 36.8849 60.2134 34.6648 66.0031C33.1729 69.8939 33 78.2388 33 84.1768C33 85.1836 33.8171 85.9997 34.8239 85.9997H82.9258C83.9335 85.9997 84.7517 85.1845 84.7517 84.1768C84.7517 83.169 83.9344 82.3531 82.9266 82.3531Z" fill="#F5DF4D"/>
</svg>
