<svg width="118" height="118" viewBox="0 0 118 118" fill="none" xmlns="http://www.w3.org/2000/svg">
<circle cx="59" cy="59" r="59" fill="#373947"/>
<g clip-path="url(#clip0_1591_2504)">
<path d="M59.0002 40.7888C49.5103 40.7888 41.7891 48.51 41.7891 58C41.7891 67.49 49.5103 75.2112 59.0002 75.2112C68.4902 75.2112 76.2114 67.49 76.2114 58C76.2114 48.51 68.4902 40.7888 59.0002 40.7888ZM59.0002 70.9084C51.8828 70.9084 46.0919 65.1175 46.0919 58C46.0919 50.8825 51.8828 45.0916 59.0002 45.0916C66.1177 45.0916 71.9086 50.8825 71.9086 58C71.9086 65.1175 66.1177 70.9084 59.0002 70.9084Z" fill="#F5DF4D"/>
<path d="M93.3059 49.802L87.7721 48.599C87.2909 47.1257 86.6949 45.6887 85.9912 44.3044L89.0547 39.5391C89.6019 38.6877 89.4816 37.5698 88.7664 36.8546L80.1454 28.2336C79.4302 27.5184 78.3123 27.3981 77.4609 27.9453L72.6956 31.0088C71.3113 30.3051 69.8743 29.7091 68.401 29.2279L67.198 23.6941C66.9832 22.7053 66.1076 22 65.0958 22H52.9042C51.8924 22 51.0168 22.7053 50.802 23.6941L49.599 29.2279C48.1257 29.7091 46.6887 30.3051 45.3044 31.0088L40.5391 27.9453C39.6877 27.3981 38.5698 27.5184 37.8546 28.2336L29.2336 36.8546C28.5184 37.5698 28.3981 38.6877 28.9453 39.5391L32.0088 44.3044C31.3051 45.6887 30.7091 47.1257 30.2279 48.599L24.6941 49.802C23.7053 50.0173 23 50.8924 23 51.9042V64.0958C23 65.1076 23.7053 65.9827 24.6941 66.198L30.2279 67.401C30.7091 68.8743 31.3051 70.3113 32.0088 71.6956L28.9453 76.4609C28.3981 77.3123 28.5184 78.4302 29.2336 79.1454L37.8546 87.7664C38.5698 88.4816 39.6877 88.6019 40.5391 88.0547L45.3044 84.9912C46.6887 85.6949 48.1257 86.2909 49.599 86.7721L50.802 92.3059C51.0168 93.2947 51.8924 94 52.9042 94H65.0958C66.1076 94 66.9832 93.2947 67.198 92.3059L68.401 86.7721C69.8743 86.2909 71.3113 85.6949 72.6956 84.9912L77.4609 88.0547C78.3123 88.6019 79.4302 88.4821 80.1454 87.7664L88.7664 79.1454C89.4816 78.4302 89.6019 77.3123 89.0547 76.4609L85.9912 71.6956C86.6949 70.3113 87.2909 68.8743 87.7721 67.401L93.3059 66.198C94.2947 65.9827 95 65.1076 95 64.0958V51.9042C95 50.8924 94.2947 50.0173 93.3059 49.802ZM90.6972 62.3616L85.6232 63.4646C84.8437 63.6343 84.2219 64.221 84.0076 64.989C83.4501 66.989 82.6481 68.9232 81.6241 70.7375C81.2319 71.4324 81.2561 72.2872 81.6879 72.9584L84.4976 77.3288L78.3293 83.4976L73.9584 80.6879C73.2872 80.2561 72.4324 80.2319 71.7381 80.6241C69.9232 81.6481 67.989 82.4501 65.989 83.0076C65.221 83.2219 64.6343 83.8437 64.4646 84.6232L63.3616 89.6972H54.6384L53.5354 84.6232C53.3657 83.8437 52.779 83.2219 52.011 83.0076C50.011 82.4501 48.0768 81.6481 46.2625 80.6241C45.5676 80.2319 44.7128 80.2567 44.0416 80.6879L39.6712 83.4976L33.5029 77.3288L36.3121 72.9584C36.7439 72.2872 36.7686 71.4324 36.3764 70.7375C35.3525 68.9232 34.5505 66.989 33.9924 64.989C33.7781 64.221 33.1569 63.6343 32.3774 63.4646L27.3028 62.3616V53.6384L32.3768 52.5354C33.1563 52.3657 33.7781 51.779 33.9924 51.011C34.5499 49.011 35.3519 47.0768 36.3759 45.2625C36.7681 44.5676 36.7439 43.7128 36.3121 43.0416L33.5024 38.6712L39.6707 32.5024L44.0416 35.3121C44.7128 35.7439 45.5676 35.7681 46.2619 35.3759C48.0768 34.3519 50.011 33.5499 52.011 32.9924C52.779 32.7781 53.3657 32.1563 53.5354 31.3768L54.6384 26.3028H63.3616L64.4646 31.3768C64.6343 32.1563 65.221 32.7781 65.989 32.9924C67.989 33.5499 69.9232 34.3519 71.7375 35.3759C72.4324 35.7681 73.2872 35.7433 73.9584 35.3121L78.3288 32.5024L84.4971 38.6712L81.6879 43.0416C81.2561 43.7128 81.2314 44.5676 81.6236 45.2625C82.6481 47.0768 83.4495 49.011 84.0076 51.011C84.2219 51.779 84.8431 52.3657 85.6226 52.5354L90.6972 53.6384V62.3616Z" fill="#F5DF4D"/>
</g>
<defs>
<clipPath id="clip0_1591_2504">
<rect width="72" height="72" fill="white" transform="translate(23 22)"/>
</clipPath>
</defs>
</svg>
