<svg width="118" height="118" viewBox="0 0 118 118" fill="none" xmlns="http://www.w3.org/2000/svg">
<circle cx="59" cy="59" r="59" fill="#373947"/>
<path d="M58.3344 48.7593C53.2215 48.7593 49.0508 53.124 49.0508 58.5001C49.0508 63.8625 53.2076 68.241 58.3344 68.241C63.4473 68.241 67.618 63.8763 67.618 58.5001C67.618 53.1378 63.4473 48.7593 58.3344 48.7593V48.7593Z" fill="#F5DF4D"/>
<path d="M58.3344 73.8942C50.1038 73.8942 43.3975 66.9938 43.3975 58.5C43.3975 50.0062 50.1038 43.1058 58.3344 43.1058C66.5649 43.1058 73.2713 50.0062 73.2713 58.5C73.2713 66.9938 66.5649 73.8942 58.3344 73.8942V73.8942ZM92.462 57.0035C83.6218 42.8149 71.7056 35 58.9441 35C46.1826 35 34.2663 42.8149 25.4261 57.0035C24.858 57.918 24.858 59.082 25.4261 59.9965C34.2663 74.1851 46.1826 82 58.9441 82C71.7056 82 83.608 74.1851 92.462 59.9965C93.0301 59.082 93.0301 57.918 92.462 57.0035Z" fill="#F5DF4D"/>
</svg>
