<svg width="118" height="118" viewBox="0 0 118 118" fill="none" xmlns="http://www.w3.org/2000/svg">
<circle cx="59" cy="59" r="59" fill="#373947"/>
<path d="M84.8846 56.2692H70.0769C67.8328 56.2692 65.6806 57.1607 64.0937 58.7476C62.5069 60.3344 61.6154 62.4866 61.6154 64.7308C61.6154 66.9749 62.5069 69.1271 64.0937 70.714C65.6806 72.3008 67.8328 73.1923 70.0769 73.1923H78.5385V79.5385C78.5377 80.0993 78.3146 80.6369 77.9181 81.0335C77.5215 81.43 76.9839 81.6531 76.4231 81.6538H42.5769C40.894 81.6534 39.28 80.9846 38.09 79.7946C36.9 78.6046 36.2312 76.9907 36.2308 75.3077V43.5769C36.2312 41.894 36.9 40.28 38.09 39.09C39.28 37.9 40.894 37.2312 42.5769 37.2308H72.1923C72.7533 37.2308 73.2914 37.4536 73.6881 37.8504C74.0848 38.2471 74.3077 38.7851 74.3077 39.3462V41.4615H42.5769C42.0159 41.4615 41.4778 41.6844 41.0811 42.0811C40.6844 42.4778 40.4615 43.0159 40.4615 43.5769C40.4615 44.138 40.6844 44.676 41.0811 45.0727C41.4778 45.4694 42.0159 45.6923 42.5769 45.6923H76.4231C76.9839 45.693 77.5215 45.9161 77.9181 46.3127C78.3146 46.7092 78.5377 47.2469 78.5385 47.8077V49.9675C78.5385 50.5285 78.7613 51.0666 79.158 51.4633C79.5548 51.86 80.0928 52.0829 80.6538 52.0829C81.2149 52.0829 81.7529 51.86 82.1496 51.4633C82.5464 51.0666 82.7692 50.5285 82.7692 49.9675V47.8077C82.8639 46.4751 82.4942 45.1508 81.7229 44.06C80.9516 42.9692 79.8264 42.1791 78.5385 41.8241V39.3462C78.538 37.6632 77.8693 36.0493 76.6792 34.8592C75.4892 33.6692 73.8753 33.0004 72.1923 33H42.5769C39.772 33.0007 37.0821 34.1153 35.0987 36.0987C33.1153 38.0821 32.0007 40.772 32 43.5769V75.3077C32.0007 78.1126 33.1153 80.8025 35.0987 82.7859C37.0821 84.7693 39.772 85.8839 42.5769 85.8846H76.4231C78.1056 85.8828 79.7187 85.2136 80.9084 84.0238C82.0982 82.8341 82.7674 81.221 82.7692 79.5385V73.1923H84.8846C85.4456 73.1923 85.9837 72.9694 86.3804 72.5727C86.7771 72.176 87 71.638 87 71.0769V58.3846C87 57.8236 86.7771 57.2855 86.3804 56.8888C85.9837 56.4921 85.4456 56.2692 84.8846 56.2692ZM82.7692 68.9615H70.0769C68.9549 68.9615 67.8787 68.5158 67.0853 67.7224C66.2919 66.929 65.8462 65.8528 65.8462 64.7308C65.8462 63.6087 66.2919 62.5326 67.0853 61.7392C67.8787 60.9457 68.9549 60.5 70.0769 60.5H82.7692V68.9615Z" fill="#F5DF4D"/>
</svg>
