<svg width="118" height="118" viewBox="0 0 118 118" fill="none" xmlns="http://www.w3.org/2000/svg">
<circle cx="59" cy="59" r="59" fill="#373947"/>
<path d="M52.7537 70.3305L74.3917 41.0179C75.108 40.0475 76.433 39.759 77.4879 40.3438C78.4374 40.8701 78.9031 41.9567 78.6637 42.9867L78.5575 43.327L65.1735 77.2152C63.721 80.8929 59.5622 82.6968 55.8845 81.2443C55.5959 81.1303 55.3149 80.9977 55.0435 80.8472C51.5842 78.9297 50.3344 74.571 52.2519 71.1117L52.4901 70.713L52.7537 70.3305L74.3917 41.0179L52.7537 70.3305ZM82.358 42.64C84.9674 44.7541 87.3292 47.2633 89.3514 50.1514C91.1653 52.742 92.9119 55.8787 93.9163 58.4457C94.4383 59.7797 93.7801 61.2843 92.4461 61.8063C91.1121 62.3283 89.6075 61.67 89.0855 60.336C88.749 59.4761 88.3 58.5161 87.7808 57.5285L80.6929 61.6206C79.4523 62.3369 77.866 61.9118 77.1498 60.6713C76.4932 59.5341 76.7957 58.1064 77.8062 57.3246L78.0991 57.1281L85.0789 53.0927L84.282 52.0078C83.1619 50.5464 81.9366 49.2085 80.6241 47.9972L81.9388 44.6624C82.0698 44.3307 82.1695 43.9935 82.2391 43.6545L82.3211 43.1449L82.358 42.64ZM73.2675 37.2407C72.752 37.54 72.277 37.9207 71.8614 38.3772L71.4664 38.8586L69.5956 41.3934C67.1687 40.5498 64.6484 40.0039 62.0946 39.7664L62.0938 49.01C62.0938 50.4425 60.9325 51.6038 59.5 51.6038C58.1869 51.6038 57.1017 50.628 56.93 49.362L56.9063 49.01L56.905 39.7096C51.3831 40.1022 45.8933 41.9493 41.0287 45.3555C38.2069 47.3314 35.7466 49.9283 33.7014 52.9801L40.9024 57.1373C42.143 57.8536 42.568 59.4399 41.8518 60.6805C41.1952 61.8177 39.8076 62.2696 38.6253 61.7853L38.3087 61.6299L31.1354 57.4903C30.6936 58.411 30.2833 59.3588 29.9056 60.3305C29.3866 61.6657 27.8835 62.3274 26.5483 61.8084C25.2132 61.2894 24.5515 59.7864 25.0704 58.4512C27.8594 51.2757 32.2613 45.1618 38.0533 41.1062C48.7461 33.619 62.0346 32.6039 73.2675 37.2407Z" fill="#F5DF4D"/>
</svg>
