<svg width="118" height="118" viewBox="0 0 118 118" fill="none" xmlns="http://www.w3.org/2000/svg">
<circle cx="59" cy="59" r="59" fill="#373947"/>
<path d="M92 83.6839H89.184V43.7109L60.004 28.6509L30.814 43.7209V83.6839H28C27.586 83.6839 27.25 84.0199 27.25 84.4339C27.25 84.8479 27.586 85.1839 28 85.1839H92C92.414 85.1839 92.75 84.8479 92.75 84.4339C92.75 84.0199 92.414 83.6839 92 83.6839ZM81.824 83.6839H78.433C78.455 83.6009 78.484 83.5209 78.484 83.4309V75.1109C78.484 74.5589 78.036 74.1109 77.484 74.1109H74.074V76.2809C74.074 76.7009 73.734 77.0309 73.324 77.0309C72.904 77.0309 72.574 76.7009 72.574 76.2809V74.1109H69.164C68.612 74.1109 68.164 74.5589 68.164 75.1109V83.4309C68.164 83.5209 68.193 83.6009 68.215 83.6839H66.613C66.635 83.6009 66.664 83.5209 66.664 83.4309V75.1109C66.664 74.5589 66.216 74.1109 65.664 74.1109H62.254V76.2809C62.254 76.7009 61.914 77.0309 61.504 77.0309C61.084 77.0309 60.754 76.7009 60.754 76.2809V74.1109H57.334C56.782 74.1109 56.334 74.5589 56.334 75.1109V83.4309C56.334 83.5209 56.363 83.6009 56.385 83.6839H54.783C54.805 83.6009 54.834 83.5209 54.834 83.4309V75.1109C54.834 74.5589 54.386 74.1109 53.834 74.1109H50.424V76.2809C50.424 76.7009 50.094 77.0309 49.674 77.0309C49.264 77.0309 48.924 76.7009 48.924 76.2809V74.1109H45.514C44.962 74.1109 44.514 74.5589 44.514 75.1109V83.4309C44.514 83.5209 44.543 83.6009 44.565 83.6839H38.174V44.2309H81.824V83.6839Z" fill="#F5DF4D"/>
<path d="M28.584 43.1739L59.817 27.0539C59.932 26.9949 60.069 26.9949 60.184 27.0539L91.417 43.1739C91.683 43.3109 92 43.1179 92 42.8189V37.5259C92 37.3759 91.916 37.2389 91.783 37.1709L60.183 20.8609C60.068 20.8019 59.931 20.8019 59.816 20.8609L28.216 37.1709C28.084 37.2389 28 37.3759 28 37.5249V42.8179C28 43.1179 28.318 43.3119 28.584 43.1739Z" fill="#F5DF4D"/>
<path d="M39.6738 45.731H80.3238V49.041H39.6738V45.731Z" fill="#F5DF4D"/>
<path d="M39.6738 50.541H80.3238V53.861H39.6738V50.541Z" fill="#F5DF4D"/>
<path d="M39.6738 55.3608H80.3238V58.6808H39.6738V55.3608Z" fill="#F5DF4D"/>
<path d="M53.8337 62.291H50.4237V64.461C50.4237 64.881 50.0937 65.211 49.6737 65.211C49.2637 65.211 48.9237 64.881 48.9237 64.461V62.291H45.5137C44.9617 62.291 44.5137 62.739 44.5137 63.291V71.611C44.5137 72.163 44.9617 72.611 45.5137 72.611H53.8337C54.3857 72.611 54.8337 72.163 54.8337 71.611V63.291C54.8337 62.739 54.3867 62.291 53.8337 62.291Z" fill="#F5DF4D"/>
<path d="M65.664 62.291H62.254V64.461C62.254 64.881 61.914 65.211 61.504 65.211C61.084 65.211 60.754 64.881 60.754 64.461V62.291H57.334C56.782 62.291 56.334 62.739 56.334 63.291V71.611C56.334 72.163 56.782 72.611 57.334 72.611H65.664C66.216 72.611 66.664 72.163 66.664 71.611V63.291C66.664 62.739 66.217 62.291 65.664 62.291Z" fill="#F5DF4D"/>
</svg>
