<svg width="118" height="118" viewBox="0 0 118 118" fill="none" xmlns="http://www.w3.org/2000/svg">
<circle cx="59" cy="59" r="59" fill="#373947"/>
<path d="M83.1011 72.4429C79.8558 72.4429 77.2158 75.0864 77.2158 78.3368C77.2158 81.5886 79.8558 84.2339 83.1011 84.2339C86.3477 84.2339 88.987 81.5886 88.987 78.3368C88.987 75.0864 86.3477 72.4429 83.1011 72.4429Z" fill="#F5DF4D"/>
<path d="M43.4161 72.4429C40.1693 72.4429 37.5293 75.0864 37.5293 78.3368C37.5293 81.5886 40.1693 84.2339 43.4161 84.2339C46.6612 84.2339 49.3012 81.5886 49.3012 78.3368C49.3014 75.0864 46.6614 72.4429 43.4161 72.4429Z" fill="#F5DF4D"/>
<path d="M86.4217 47.6818C86.1111 46.7461 85.2354 46.1138 84.2488 46.1138H81.4668V55.8994H89.1438L86.4217 47.6818Z" fill="#F5DF4D"/>
<path d="M93.796 59.5615H81.4668V68.9229C81.998 68.8318 82.5441 68.7807 83.1007 68.7807C88.0201 68.7807 92.0819 72.525 92.5932 77.3153H93.0241C94.2872 77.3153 95.312 76.2905 95.312 75.0259V61.7137C95.312 60.7203 94.6788 59.879 93.796 59.5615Z" fill="#F5DF4D"/>
<path d="M77.7181 35.2894C77.7181 34.0248 76.6932 33 75.4299 33H31.2879C30.0248 33 29 34.0246 29 35.2894V75.0261C29 76.2907 30.0248 77.3155 31.2879 77.3155H33.9225C34.434 72.5252 38.4956 68.7809 43.4159 68.7809C48.3344 68.7809 52.3953 72.5252 52.9068 77.3155H70.9752H73.6098C73.9179 74.4313 75.5123 71.9295 77.8065 70.3923L77.7181 35.2894Z" fill="#F5DF4D"/>
</svg>
