<svg width="118" height="118" viewBox="0 0 118 118" fill="none" xmlns="http://www.w3.org/2000/svg">
<circle cx="59" cy="59" r="59" fill="#373947"/>
<path d="M98 66.6172V62.0469H88.707V34.625H29.293V62.0469H20V66.6172H24.5703V70.0571C21.9105 71.0004 20 73.5405 20 76.5195C20 80.2996 23.0754 83.375 26.8555 83.375C30.6356 83.375 33.7109 80.2996 33.7109 76.5195C33.7109 76.3491 33.7026 76.1807 33.6902 76.0133L33.7307 76.0235C33.719 76.1876 33.7109 76.3526 33.7109 76.5195C33.7109 80.2996 36.7863 83.375 40.5664 83.375C43.5455 83.375 46.0855 81.4645 47.0288 78.8047H70.9712C71.9145 81.4645 74.4545 83.375 77.4336 83.375C81.2137 83.375 84.2891 80.2996 84.2891 76.5195C84.2891 76.3526 84.281 76.1876 84.2691 76.0235L84.3096 76.0133C84.2974 76.1807 84.2891 76.3491 84.2891 76.5195C84.2891 80.2996 87.3644 83.375 91.1445 83.375C94.9246 83.375 98 80.2996 98 76.5195C98 73.5405 96.0895 71.0004 93.4297 70.0571V66.6172H98ZM33.8633 39.1953H84.1367V62.0469H33.8633V39.1953ZM29.1406 76.5195C29.1406 77.7796 28.1155 78.8047 26.8555 78.8047C25.5954 78.8047 24.5703 77.7796 24.5703 76.5195C24.5703 75.3384 25.471 74.3637 26.6216 74.2463L28.1288 74.623C28.7386 75.0339 29.1406 75.7305 29.1406 76.5195ZM40.5664 78.8047C39.3064 78.8047 38.2812 77.7796 38.2812 76.5195C38.2812 75.2595 39.3064 74.2344 40.5664 74.2344C41.8264 74.2344 42.8516 75.2595 42.8516 76.5195C42.8516 77.7796 41.8264 78.8047 40.5664 78.8047ZM77.4336 78.8047C76.1736 78.8047 75.1484 77.7796 75.1484 76.5195C75.1484 75.2595 76.1736 74.2344 77.4336 74.2344C78.6936 74.2344 79.7188 75.2595 79.7188 76.5195C79.7188 77.7796 78.6936 78.8047 77.4336 78.8047ZM91.1445 78.8047C89.8845 78.8047 88.8594 77.7796 88.8594 76.5195C88.8594 75.7305 89.2614 75.0339 89.8712 74.623L91.3784 74.2463C92.529 74.3637 93.4297 75.3384 93.4297 76.5195C93.4297 77.7796 92.4046 78.8047 91.1445 78.8047ZM88.8594 70.0571C88.6341 70.1371 88.4138 70.2277 88.1999 70.3298L82.3837 71.7839C81.1348 70.4791 79.3781 69.6641 77.4336 69.6641C74.4545 69.6641 71.9145 71.5746 70.9712 74.2344H65.8555V71.1875H61.2852V74.2344H56.7148V71.1875H52.1445V74.2344H47.0288C46.0855 71.5746 43.5455 69.6641 40.5664 69.6641C38.6219 69.6641 36.8654 70.4791 35.6165 71.7841L29.8001 70.33C29.5862 70.2277 29.3659 70.1371 29.1406 70.0573V66.6172H88.8594V70.0571Z" fill="#F5DF4D"/>
<path d="M56.7148 43.7656H61.2852V57.4766H56.7148V43.7656Z" fill="#F5DF4D"/>
<path d="M65.8555 43.7656H70.4258V57.4766H65.8555V43.7656Z" fill="#F5DF4D"/>
<path d="M74.9961 43.7656H79.5664V57.4766H74.9961V43.7656Z" fill="#F5DF4D"/>
<path d="M38.4336 43.7656H43.0039V57.4766H38.4336V43.7656Z" fill="#F5DF4D"/>
<path d="M47.5742 43.7656H52.1445V57.4766H47.5742V43.7656Z" fill="#F5DF4D"/>
</svg>
