<svg width="118" height="118" viewBox="0 0 118 118" fill="none" xmlns="http://www.w3.org/2000/svg">
<circle cx="59" cy="59" r="59" fill="#373947"/>
<path d="M72.0133 44.103H60.6289V48.399H72.0133V44.103Z" fill="#F5DF4D"/>
<path d="M41.2961 79.5448V37.444C41.2961 36.2595 42.2596 35.296 43.4441 35.296H74.1485C75.333 35.296 76.2965 36.2595 76.2965 37.444V58.4858L80.5925 54.0684V37.444C80.5925 33.8908 77.7017 31 74.1485 31H43.4441C39.8909 31 37 33.8908 37 37.444V79.5448C37 83.098 39.8908 85.9888 43.444 85.9888H59.8434L60.8203 81.6928H43.4441C42.2596 81.6928 41.2961 80.7293 41.2961 79.5448Z" fill="#F5DF4D"/>
<path d="M72.0133 56.9907H60.6289V61.2867H72.0133V56.9907Z" fill="#F5DF4D"/>
<path d="M82.8516 57.9072L68.419 72.7477C67.5944 73.5757 66.9642 74.5993 66.5967 75.7086L66.5642 75.8069L64.2383 86.0353L74.4939 83.7393L74.5952 83.7057C75.7102 83.3368 76.7386 82.703 77.5692 81.8729L91.9997 67.0349L82.8516 57.9072ZM74.5231 78.8437C74.4428 78.9233 74.3579 78.9984 74.2697 79.0693L71.2357 76.0333C71.3085 75.943 71.3859 75.8563 71.4679 75.7744L82.8976 64.0218L85.9631 67.0804L74.5231 78.8437Z" fill="#F5DF4D"/>
<path d="M56.4389 52.563L51.1817 58.5258L48.5657 56.0693L45.625 59.2011L51.4725 64.6921L59.6614 55.4042L56.4389 52.563Z" fill="#F5DF4D"/>
<path d="M56.4389 39.5674L51.1817 45.5302L48.5657 43.0736L45.625 46.2054L51.4725 51.6964L59.6614 42.4085L56.4389 39.5674Z" fill="#F5DF4D"/>
<path d="M48.5657 68.9573L45.625 72.0892L51.4725 77.5802L59.6614 68.2923L56.4389 65.4512L51.1817 71.414L48.5657 68.9573Z" fill="#F5DF4D"/>
</svg>
