<svg width="118" height="118" viewBox="0 0 118 118" fill="none" xmlns="http://www.w3.org/2000/svg">
<circle cx="59" cy="59" r="59" fill="#373947"/>
<path d="M59.0003 25.769C63.1541 25.769 66.5188 30.3244 70.2018 31.889C73.8849 33.4537 79.6449 32.5952 82.4418 35.5583C85.2388 38.5214 84.5326 43.9629 86.1111 47.7983C87.6895 51.6337 92.2311 54.846 92.2311 58.9998C92.2311 63.1537 87.6757 66.5183 86.1111 70.2014C84.5465 73.8844 85.4049 79.6444 82.4418 82.4414C79.4788 85.2383 74.0372 84.5598 70.2018 86.1106C66.3665 87.6614 63.1541 92.2306 59.0003 92.2306C54.8465 92.2306 51.4818 87.6752 47.7988 86.1106C44.1157 84.546 38.3557 85.4044 35.5588 82.4414C32.7618 79.4783 33.4403 74.0367 31.8895 70.2014C30.3388 66.366 25.7695 63.1537 25.7695 58.9998C25.7695 54.846 30.3249 51.4814 31.8895 47.7983C33.4541 44.1152 32.5957 38.3552 35.5588 35.5583C38.5218 32.7614 43.9634 33.4398 47.7988 31.889C51.6341 30.3383 54.8465 25.769 59.0003 25.769ZM59.0003 36.2644C54.5037 36.2644 50.108 37.5978 46.3692 40.096C42.6304 42.5942 39.7163 46.145 37.9955 50.2994C36.2748 54.4537 35.8245 59.025 36.7018 63.4353C37.579 67.8455 39.7444 71.8966 42.924 75.0762C46.1036 78.2558 50.1546 80.4211 54.5648 81.2983C58.9751 82.1756 63.5464 81.7254 67.7008 80.0046C71.8551 78.2838 75.4059 75.3697 77.9041 71.6309C80.4023 67.8921 81.7357 63.4964 81.7357 58.9998V58.9998C81.7174 52.9756 79.3162 47.2034 75.0565 42.9436C70.7967 38.6839 65.0245 36.2827 59.0003 36.2644V36.2644ZM69.5511 48.9337L71.7803 51.0383C72.0083 51.3391 72.1317 51.7062 72.1317 52.0837C72.1317 52.4611 72.0083 52.8282 71.7803 53.129L57.7265 68.789C57.4486 69.1041 57.1049 69.3542 56.7197 69.5217C56.3345 69.6892 55.9171 69.7699 55.4972 69.7583C55.0794 69.756 54.6664 69.6689 54.2832 69.5023C53.9 69.3357 53.5547 69.093 53.268 68.789L45.6665 61.2152C45.5272 61.0959 45.4131 60.9501 45.3306 60.7863C45.2482 60.6225 45.1991 60.444 45.1862 60.2611C45.1733 60.0781 45.1969 59.8945 45.2556 59.7208C45.3143 59.547 45.4069 59.3867 45.528 59.249L45.6665 59.0967L47.9234 57.006C48.1952 56.7136 48.5709 56.5396 48.9697 56.5215C49.3685 56.5034 49.7585 56.6425 50.0557 56.909L50.1526 57.006L55.5388 62.5444L67.4326 48.9752C67.7113 48.6946 68.0881 48.5334 68.4834 48.5257C68.8788 48.5179 69.2616 48.6642 69.5511 48.9337Z" fill="#F5DF4D"/>
</svg>
