<svg width="30" height="30" viewBox="0 0 30 30" fill="none" xmlns="http://www.w3.org/2000/svg">
<g clip-path="url(#clip0_649_964)">
<path d="M29.9334 23.2445C29.8486 22.9888 29.3087 22.6122 28.3142 22.1155C28.0448 21.9589 27.661 21.7462 27.1642 21.4762C26.6671 21.2063 26.2158 20.9576 25.8112 20.7303C25.4059 20.503 25.0261 20.2829 24.6712 20.0701C24.6145 20.0275 24.437 19.9034 24.1387 19.697C23.8401 19.4911 23.5883 19.3384 23.382 19.2388C23.1761 19.1397 22.9735 19.0899 22.7747 19.0899C22.4906 19.0899 22.1359 19.2924 21.7099 19.697C21.2839 20.102 20.8932 20.542 20.5382 21.0183C20.1832 21.4944 19.8067 21.9344 19.4094 22.3392C19.0115 22.7442 18.6846 22.9465 18.4292 22.9465C18.301 22.9465 18.1411 22.9108 17.9496 22.8403C17.7581 22.7693 17.6124 22.7085 17.5124 22.6594C17.4133 22.6094 17.2432 22.5103 17.0016 22.3606C16.7595 22.2115 16.6249 22.1297 16.5965 22.1155C14.6506 21.0357 12.9817 19.7999 11.5895 18.4083C10.1978 17.0159 8.96183 15.3472 7.88235 13.401C7.86817 13.3726 7.7863 13.2376 7.63727 12.9963C7.48802 12.7547 7.38854 12.5845 7.33884 12.4848C7.28913 12.3854 7.22876 12.2398 7.15787 12.048C7.08697 11.8563 7.05137 11.6966 7.05137 11.5686C7.05137 11.3131 7.25384 10.9862 7.65869 10.5885C8.06347 10.1909 8.50392 9.81438 8.97959 9.45953C9.45564 9.10467 9.89564 8.71392 10.3006 8.28795C10.7053 7.86176 10.9077 7.50683 10.9077 7.2228C10.9077 7.02407 10.858 6.82145 10.7587 6.61556C10.6593 6.40921 10.5066 6.15742 10.3006 5.85898C10.0944 5.5607 9.97019 5.38331 9.92751 5.32622C9.71467 4.97137 9.49474 4.59144 9.2672 4.18659C9.03967 3.78181 8.79131 3.33061 8.52131 2.83352C8.25153 2.33665 8.03862 1.95299 7.8822 1.68314C7.38533 0.689033 7.00898 0.149031 6.75324 0.0641048C6.65376 0.0214926 6.5045 0 6.30585 0C5.92211 0 5.42151 0.0708959 4.80367 0.213135C4.18561 0.355151 3.69927 0.504107 3.34412 0.6606C2.63389 0.958736 1.88112 1.82516 1.0856 3.25957C0.361189 4.5945 -0.000976562 5.91578 -0.000976562 7.22242C-0.000976562 7.60563 0.0238743 7.97847 0.073576 8.34101C0.123278 8.70318 0.212084 9.11161 0.34007 9.56624C0.467832 10.0207 0.570892 10.3583 0.648803 10.5782C0.726788 10.7982 0.872386 11.1923 1.08552 11.7607C1.29836 12.3289 1.42634 12.6767 1.46896 12.8045C1.96605 14.1966 2.55553 15.4394 3.23725 16.5332C4.3589 18.3513 5.88958 20.2302 7.82839 22.1691C9.76728 24.108 11.6458 25.6386 13.464 26.7607C14.5577 27.4423 15.8009 28.0317 17.1928 28.5292C17.3207 28.5716 17.6685 28.6992 18.2365 28.9128C18.8047 29.1258 19.199 29.2714 19.419 29.3496C19.639 29.4278 19.9767 29.5309 20.4308 29.6589C20.8859 29.7869 21.294 29.8757 21.6561 29.9257C22.0185 29.9748 22.3914 30.0001 22.7747 30.0001C24.0813 30.0001 25.4027 29.6377 26.7378 28.9134C28.1721 28.1181 29.0383 27.3652 29.3366 26.6545C29.4934 26.2997 29.642 25.8132 29.784 25.1951C29.9265 24.5774 29.9972 24.0768 29.9972 23.6932C29.9977 23.4937 29.9763 23.3448 29.9334 23.2445Z" fill="#222222"/>
</g>
<defs>
<clipPath id="clip0_649_964">
<rect width="30" height="30" fill="white"/>
</clipPath>
</defs>
</svg>
