<svg width="512" height="512" viewBox="0 0 512 512" fill="none" xmlns="http://www.w3.org/2000/svg">
    <style>
        .color {fill:#000000;}
        @media (prefers-color-scheme: dark) {
        .color { fill: #F5DF4D }
        }
    </style>
<path class="color" d="M200.258 283.977L103.554 463.993C102.603 465.454 101.178 466.428 99.5144 466.428C99.0392 466.428 98.8016 466.428 98.3264 466.185C96.4256 465.698 95 463.749 95 461.557V281.542C95 279.106 96.9008 277.157 99.5144 277.157H196.218C197.882 277.157 199.307 278.131 200.02 279.349C201.208 280.811 201.208 282.516 200.258 283.977ZM99.5144 235.503H223.78C225.443 235.503 226.869 234.528 227.819 233.067L329.038 44.5257C329.75 43.3078 329.75 41.6026 329.275 40.3847C328.562 39.1667 327.374 37.9487 325.949 37.7051C320.246 36.4872 314.306 36 308.129 36H99.5144C96.9008 36 95 37.9487 95 40.6283V230.874C95 233.31 96.9008 235.503 99.5144 235.503ZM277.478 231.605C278.429 233.067 279.854 233.797 281.517 233.797H308.366C361.589 233.797 404.833 189.463 404.833 134.899C404.833 106.885 393.19 80.0903 372.756 61.3336C371.806 60.6029 370.856 60.1157 369.668 60.1157C369.43 60.1157 369.192 60.1157 368.955 60.1157C367.529 60.3593 366.341 61.3336 365.866 62.5516L277.478 226.977C276.528 228.438 276.765 230.143 277.478 231.605ZM332.127 277.4H253.005C251.342 277.4 249.916 278.375 248.966 279.836L147.51 468.377C146.797 469.839 146.797 471.544 147.51 473.005C148.46 474.467 149.886 475.198 151.549 475.198H332.127C385.349 475.198 428.593 430.864 428.593 376.299C428.83 321.978 385.349 277.4 332.127 277.4Z"/>
</svg>
