<?xml version="1.0" standalone="no"?>
<!DOCTYPE svg PUBLIC "-//W3C//DTD SVG 20010904//EN"
 "http://www.w3.org/TR/2001/REC-SVG-20010904/DTD/svg10.dtd">
<svg version="1.0" xmlns="http://www.w3.org/2000/svg"
 width="634.000000pt" height="634.000000pt" viewBox="0 0 634.000000 634.000000"
 preserveAspectRatio="xMidYMid meet">
<metadata>
Created by potrace 1.14, written by Peter Selinger 2001-2017
</metadata>
<g transform="translate(0.000000,634.000000) scale(0.100000,-0.100000)"
fill="#000000" stroke="none">
<path d="M511 6314 l-21 -27 0 -1388 0 -1388 25 -23 24 -23 1015 1 c793 0
1020 3 1038 13 13 7 55 66 93 132 39 66 75 125 80 132 10 11 27 41 92 157 14
25 31 52 37 60 7 8 32 49 56 90 24 41 53 91 65 110 13 19 33 54 46 77 13 23
105 176 204 340 99 164 188 314 198 333 11 19 25 42 31 50 11 14 64 100 76
125 9 18 142 239 175 290 18 28 36 60 39 73 4 12 12 22 17 22 5 0 9 5 9 10 0
6 8 23 19 38 27 40 261 432 261 438 0 3 11 20 25 38 14 18 25 35 25 38 0 3 18
35 40 69 65 102 82 143 71 172 -11 29 -22 37 -56 43 -14 2 -37 7 -52 11 -16 4
-834 9 -1820 10 l-1791 4 -21 -27z"/>
<path d="M4859 5977 c-13 -10 -83 -119 -149 -232 -9 -16 -83 -140 -164 -274
-80 -134 -146 -247 -146 -252 0 -5 -4 -9 -8 -9 -5 0 -14 -12 -21 -27 -7 -16
-23 -44 -35 -63 -13 -19 -63 -102 -112 -185 -48 -82 -92 -151 -96 -153 -4 -2
-8 -12 -8 -23 0 -10 -4 -19 -10 -19 -5 0 -10 -7 -10 -15 0 -8 -4 -15 -9 -15
-5 0 -13 -10 -17 -22 -4 -13 -17 -37 -30 -54 -13 -17 -24 -34 -24 -38 0 -3
-22 -42 -50 -86 -27 -44 -50 -82 -50 -85 0 -3 -8 -18 -19 -33 -46 -67 -89
-139 -95 -159 -4 -13 -12 -23 -17 -23 -5 0 -9 -4 -9 -9 0 -7 -91 -162 -171
-291 -66 -108 -169 -283 -169 -290 0 -4 -7 -13 -15 -20 -24 -20 -18 -66 11
-89 26 -21 35 -21 343 -17 174 3 333 7 354 11 134 21 320 68 345 87 6 6 12 8
12 5 0 -12 176 71 279 133 150 88 315 238 422 382 62 84 118 176 118 192 -1 5
4 12 9 15 23 14 103 240 118 331 2 14 6 34 9 45 23 105 23 274 1 435 -27 196
-135 438 -276 620 -52 67 -197 212 -227 228 -28 15 -64 15 -84 -1z"/>
<path d="M514 2848 l-24 -19 0 -1322 c1 -1462 -4 -1357 66 -1363 52 -4 54 -2
189 228 5 10 32 55 60 100 27 46 53 90 57 98 4 8 60 100 123 205 63 104 115
193 115 197 0 4 4 8 9 8 5 0 14 12 21 28 19 46 34 72 42 72 5 0 8 4 8 10 0 5
31 61 70 124 39 63 70 119 70 125 0 6 3 11 8 11 4 0 16 17 27 38 11 20 32 56
47 78 16 23 28 44 28 47 0 3 34 60 75 127 41 67 75 126 75 131 0 5 5 9 10 9 6
0 10 5 10 10 0 6 12 29 27 53 15 23 35 56 44 72 9 17 29 51 45 78 185 306 370
614 374 622 3 5 17 28 31 50 14 22 29 47 33 55 4 8 13 26 21 40 21 35 18 64
-6 86 -20 18 -49 19 -826 20 -777 1 -805 0 -829 -18z"/>
<path d="M3030 2862 c-19 -2 -41 -8 -48 -14 -10 -9 -318 -511 -330 -540 -2 -4
-28 -47 -57 -95 -30 -49 -70 -115 -90 -148 -19 -33 -47 -81 -63 -106 -15 -25
-55 -92 -90 -150 -35 -57 -67 -111 -72 -119 -52 -85 -107 -178 -113 -190 -4
-8 -25 -44 -47 -79 -22 -34 -40 -67 -40 -72 0 -5 -4 -9 -9 -9 -5 0 -12 -8 -15
-17 -3 -10 -12 -27 -19 -38 -7 -11 -61 -101 -120 -200 -115 -192 -115 -191
-164 -271 -18 -29 -33 -58 -33 -64 0 -5 -4 -10 -10 -10 -5 0 -10 -4 -10 -8 0
-9 -92 -168 -108 -187 -4 -5 -11 -17 -15 -25 -4 -8 -18 -33 -32 -55 -14 -22
-34 -56 -45 -75 -24 -41 -36 -61 -72 -117 -16 -23 -28 -46 -28 -52 0 -6 -5
-11 -12 -11 -6 0 -8 -3 -5 -7 4 -3 1 -13 -7 -22 -8 -9 -23 -33 -34 -54 -24
-45 -15 -88 21 -104 24 -11 3094 -10 3137 1 13 3 42 8 65 11 155 22 354 89
517 173 148 77 374 266 477 400 132 172 236 400 266 582 3 19 9 49 13 65 9 41
7 319 -2 375 -12 71 -14 81 -41 190 -20 80 -107 261 -170 355 -155 231 -360
405 -627 533 -47 23 -88 42 -91 42 -3 0 -16 4 -29 9 -13 5 -27 10 -33 11 -5 2
-33 11 -62 21 -29 10 -69 20 -89 23 -20 4 -39 8 -43 10 -11 7 -86 18 -211 32
-64 7 -1343 12 -1410 6z"/>
</g>
</svg>
